<?xml version="1.0" encoding="utf-8"?>
<!-- Generator: Adobe Illustrator 25.2.0, SVG Export Plug-In . SVG Version: 6.00 Build 0)  -->
<svg version="1.1" id="Calque_1" xmlns="http://www.w3.org/2000/svg" xmlns:xlink="http://www.w3.org/1999/xlink" x="0px" y="0px"
	 viewBox="0 0 369 324" style="enable-background:new 0 0 369 324;" xml:space="preserve">
<style type="text/css">
	.st0{fill:#009EE2;}
	.st1{fill:#00FF00;}
</style>
<g>
	<path class="st0" d="M179.7,18V0l-45,45l45,45V72.1c45.6,4.4,81.3,42.8,81.3,89.6c0,49.7-40.3,90-90,90H58.6H0v54h171
		c79.5,0,144-64.5,144-144C315,85.1,255.2,22.5,179.7,18z"/>
</g>
<path class="st1" d="M369,279l-45-45v18h-23.1c-15.5,23.8-37.8,42.7-64.2,54H324v18L369,279z"/>
<path class="st1" d="M58.6,251.7h105.1C117.4,248,81,209.2,81,162c0-38.4,24.1-71.2,58-84.1L108,64l17.3-38.6
	C68.2,44.5,27,98.5,27,162c0,33.9,11.7,65.1,31.4,89.7H58.6z"/>
</svg>
