<?xml version="1.0" encoding="utf-8"?>
<!-- Generator: Adobe Illustrator 25.2.0, SVG Export Plug-In . SVG Version: 6.00 Build 0)  -->
<svg version="1.1" id="Calque_1" xmlns="http://www.w3.org/2000/svg" xmlns:xlink="http://www.w3.org/1999/xlink" x="0px" y="0px"
	 viewBox="0 0 369 324" style="enable-background:new 0 0 369 324;" xml:space="preserve">
<style type="text/css">
	.st0{fill:#009EE2;}
	.st1{fill:#FFEC00;}
	.st2{fill:#FFA500;}
</style>
<g>
	<path class="st0" d="M179.7,18V0l-45,45l45,45V72.1c45.6,4.4,81.3,42.8,81.3,89.6c0,49.7-40.3,90-90,90H58.6H0v54h171
		c79.5,0,144-64.5,144-144C315,85.1,255.2,22.5,179.7,18z"/>
</g>
<path class="st1" d="M369,279l-45-45v18h-40.6H171c-49.7,0-90-40.3-90-90c0-38.4,24.1-71.2,58-84.1L108,64l17.3-38.6
	C68.2,44.5,27,98.5,27,162c0,79.5,64.5,144,144,144h153v18L369,279z"/>
<path class="st2" d="M495,270"/>
</svg>
