<svg xmlns="http://www.w3.org/2000/svg" viewBox="0 0 369 324" xmlns:v="https://vecta.io/nano">
<path d="M179.7 18V0l-45 45 45 45V72.1c45.6 4.4 81.3 42.8 81.3 89.6 0 49.7-40.3 90-90 90H58.6 0v54h171c79.5 0 144-64.5 144-144C315 85.1 255.2 22.5 179.7 18z" fill="#009ee2"/>
<path d="M369 279l-45-45v18h-23.1c-15.5 23.8-37.8 42.7-64.2 54H324v18l45-45zM58.6 251.7h105.1C117.4 248 81 209.2 81 162c0-38.4 24.1-71.2 58-84.1L108 64l17.3-38.6C68.2 44.5 27 98.5 27 162c0 33.9 11.7 65.1 31.4 89.7h.2z" fill="#0f0"/></svg>