<?xml version="1.0" encoding="utf-8"?>
<!-- Generator: Adobe Illustrator 25.2.0, SVG Export Plug-In . SVG Version: 6.00 Build 0)  -->
<svg version="1.1" id="Calque_1" xmlns:v="https://vecta.io/nano"
	 xmlns="http://www.w3.org/2000/svg" xmlns:xlink="http://www.w3.org/1999/xlink" x="0px" y="0px" viewBox="0 0 288 333"
	 style="enable-background:new 0 0 288 333;" xml:space="preserve">
<style type="text/css">
	.st0{fill:#FFFFFF;}
	.st1{opacity:0.15;}
	.st2{fill:#479CD5;}
	.st3{fill:#255DA8;}
</style>
<rect x="45" y="52.6" class="st0" width="192.1" height="217.4"/>
<polygon class="st1" points="144,0 144,333 261.5,294.4 287.7,0 "/>
<path class="st2" d="M288,0L0,0.1l0,0.1h0l25.7,294.3L144.3,333l117.5-38.6L288,0z M231,94.7l-86.7,36.6l-0.2,0.1H228l-9.6,109
	l-74.1,21.1L71,240.3l-4.8-55H103l2.4,28.5l38.9,9.7l41-11.5l2.8-45.7L63.7,166L61,131.6l89.2-36.9l-92.9-0.3l-4-34.7l181.3-0.2
	L231,94.7z"/>
<g>
	<polygon class="st3" points="144,94.7 144,97.3 150.2,94.7 	"/>
	<polygon class="st3" points="185.2,212 188,166.3 144,166.2 144,223.4 144.3,223.5 	"/>
	<polygon class="st3" points="144,0 144,59.6 234.7,59.5 231,94.7 144.4,131.4 144.2,131.5 228,131.5 218.4,240.5 144.3,261.6 
		144,261.6 144,332.9 144.3,333 261.8,294.4 288,0 	"/>
</g>
</svg>
