<?xml version="1.0" encoding="utf-8"?>
<!-- Generator: Adobe Illustrator 25.2.0, SVG Export Plug-In . SVG Version: 6.00 Build 0)  -->
<svg version="1.1" id="Calque_1" xmlns="http://www.w3.org/2000/svg" xmlns:xlink="http://www.w3.org/1999/xlink" x="0px" y="0px"
	 viewBox="0 0 66 58" style="enable-background:new 0 0 66 58;" xml:space="preserve">
<style type="text/css">
	.st0{fill:#8080F2;}
	.st1{fill:#4B32C3;}
</style>
<path id="logo-center" class="st0" d="M46.1,21.1l-12.5-7.2c-0.3-0.2-0.7-0.2-1,0L20,21.1c-0.3,0.2-0.5,0.5-0.5,0.9v14.5
	c0,0.4,0.2,0.7,0.5,0.9l12.5,7.2c0.3,0.2,0.7,0.2,1,0l12.5-7.2c0.3-0.2,0.5-0.5,0.5-0.9V22C46.6,21.6,46.4,21.3,46.1,21.1z"/>
<path class="st1" d="M0.4,27.7l15-26.1C15.9,0.7,16.9,0,18,0h30c1.1,0,2.1,0.7,2.6,1.6l15,26c0.5,0.9,0.5,2.1,0,3.1l-15,25.9
	C50.1,57.5,49.1,58,48,58H18c-1.1,0-2.1-0.5-2.6-1.4l-15-25.9C-0.1,29.8-0.1,28.6,0.4,27.7z M12.8,40.2c0,0.4,0.2,0.7,0.6,0.9
	l19.1,11c0.3,0.2,0.7,0.2,1.1,0l19.1-11c0.3-0.2,0.6-0.5,0.6-0.9v-22c0-0.4-0.2-0.7-0.6-0.9l-19.1-11c-0.3-0.2-0.7-0.2-1.1,0
	l-19.1,11c-0.3,0.2-0.6,0.5-0.6,0.9V40.2L12.8,40.2z"/>
</svg>
