<?xml version="1.0" encoding="utf-8"?>
<!-- Generator: Adobe Illustrator 25.2.0, SVG Export Plug-In . SVG Version: 6.00 Build 0)  -->
<svg version="1.1" id="Calque_1" xmlns:v="https://vecta.io/nano"
	 xmlns="http://www.w3.org/2000/svg" xmlns:xlink="http://www.w3.org/1999/xlink" x="0px" y="0px" viewBox="0 0 288 333"
	 style="enable-background:new 0 0 288 333;" xml:space="preserve">
<style type="text/css">
	.st0{fill:#FFFFFF;}
	.st1{opacity:0.15;}
	.st2{fill:#F96F24;}
	.st3{fill:#E44E2F;}
</style>
<rect x="50.9" y="52.6" class="st0" width="192.1" height="217.4"/>
<polygon class="st1" points="144,0 144,333 261.5,294.4 287.7,0 "/>
<path class="st2" d="M0,0.1L0,0.1L0,0.1l25.7,294.3L144.3,333l117.5-38.6L288,0L0,0.1z M231.2,98.7H93.3l3.1,37.1h131.7l-10.2,111.3
	L144,267.5l-74.4-20.4l-4.5-56.9h35.8l2.6,28.6l40.5,10.8l39.9-10.8l4.5-46.7H63.2L53.6,63h180.8L231.2,98.7z"/>
<path class="st3" d="M234,99"/>
<g>
	<polygon class="st3" points="188.4,172.1 144,172.1 144,229.6 183.9,218.8 	"/>
	<polygon class="st3" points="144,0 144,63 234.4,63 231.2,98.7 144,98.7 144,135.8 228.1,135.8 217.9,247.1 144,267.5 144,332.9 
		144.3,333 261.8,294.4 288,0 	"/>
</g>
</svg>
