<?xml version="1.0" encoding="utf-8"?>
<!-- Generator: Adobe Illustrator 25.2.0, SVG Export Plug-In . SVG Version: 6.00 Build 0)  -->
<svg version="1.1" id="Calque_1" xmlns:v="https://vecta.io/nano"
	 xmlns="http://www.w3.org/2000/svg" xmlns:xlink="http://www.w3.org/1999/xlink" x="0px" y="0px" viewBox="0 0 98.6 98.6"
	 style="enable-background:new 0 0 98.6 98.6;" xml:space="preserve">
<style type="text/css">
	.st0{fill:#F0DB4F;}
	.st1{fill:#323330;}
</style>
<g>
	<g>
		<path class="st0" d="M0,0h98.6v98.6H0V0z"/>
		<path class="st1" d="M90.5,75.1c-0.7-4.5-3.7-8.3-12.3-11.8c-3-1.4-6.4-2.4-7.4-4.7c-0.4-1.3-0.4-2.1-0.2-2.9
			c0.6-2.6,3.8-3.4,6.2-2.7c1.6,0.5,3.1,1.8,4,3.7l7.2-4.6c-1.1-1.7-1.7-2.5-2.4-3.2c-2.6-2.9-6-4.3-11.6-4.2l-2.9,0.4
			c-2.8,0.7-5.4,2.2-7,4.1c-4.7,5.3-3.3,14.6,2.3,18.4c5.6,4.2,13.8,5.2,14.9,9.1c1,4.8-3.5,6.4-8.1,5.8c-3.3-0.7-5.2-2.4-7.2-5.5
			l-7.5,4.3c0.9,2,1.8,2.9,3.4,4.6c7.1,7.2,25,6.9,28.2-4.1C90.4,81.5,91.2,78.9,90.5,75.1L90.5,75.1z M53.6,45.3h-9.2l0,23.8
			c0,5.1,0.3,9.7-0.6,11.1c-1.3,2.8-4.8,2.5-6.4,1.9c-1.6-0.8-2.4-1.9-3.4-3.5c-0.3-0.5-0.5-0.8-0.5-0.8l-7.5,4.6
			c1.2,2.6,3.1,4.8,5.4,6.2c3.5,2.1,8.2,2.8,13.2,1.6c3.2-0.9,6-2.9,7.4-5.8c2.1-3.9,1.6-8.6,1.6-13.7
			C53.6,70.7,53.6,45.3,53.6,45.3z"/>
	</g>
</g>
</svg>
