<?xml version="1.0" encoding="utf-8"?>
<!-- Generator: Adobe Illustrator 25.2.0, SVG Export Plug-In . SVG Version: 6.00 Build 0)  -->
<svg version="1.1" id="Calque_1" xmlns="http://www.w3.org/2000/svg" xmlns:xlink="http://www.w3.org/1999/xlink" x="0px" y="0px"
	 viewBox="0 0 477 477" style="enable-background:new 0 0 477 477;" xml:space="preserve">
<style type="text/css">
	.st0{fill:#99425B;}
	.st1{fill:#FFFFFF;}
</style>
<path class="st0" d="M436.6,477H40.4C18.1,477,0,458.9,0,436.6V40.4C0,18.1,18.1,0,40.4,0h396.2C458.9,0,477,18.1,477,40.4v396.2
	C477,458.9,458.9,477,436.6,477z"/>
<path class="st1" d="M127.6,189.2c-31.1-1-56.6,24.4-55.6,55.6c0.9,28.2,23.9,51.2,52.1,52.1c31.1,1,56.6-24.4,55.6-55.6
	C178.8,213,155.8,190.1,127.6,189.2z M128,269.8c-16.6,1.3-30.3-12.4-29-29c1-13.1,11.6-23.6,24.7-24.7c16.6-1.3,30.3,12.4,29,29
	C151.7,258.2,141.1,268.8,128,269.8z"/>
<path class="st1" d="M381.4,193.4L423,45H180l41.8,148.3c-20,8.5-33.8,28.8-32.8,52.1c1.2,27.6,23.5,50.1,51.1,51.5
	c28,1.4,51.6-18.5,56.1-44.9h10.5c4.4,26.4,28.1,46.4,56.1,44.9c27.6-1.4,49.9-23.9,51.1-51.5C415,222.2,401.3,202,381.4,193.4z
	 M245.2,269.9c-16.6,1.3-30.4-12.5-29.1-29.1c1-13.1,11.6-23.7,24.7-24.7c16.6-1.3,30.4,12.5,29.1,29.1
	C268.9,258.3,258.3,268.9,245.2,269.9z M309.1,225h-15.2c-2-5.6-4.8-10.7-8.4-15.3l15.9-56.7l16,56.8
	C313.9,214.4,311,219.5,309.1,225z M313.6,99h-24.2l-26.3,93.9c-4.4-1.8-9.1-3-14-3.5L216,72h54h27h9h27h54l-32.9,117.3
	c-4.9,0.5-9.6,1.7-14,3.5L313.6,99z M362.2,269.9c-16.6,1.3-30.4-12.5-29.1-29.1c1-13.1,11.6-23.7,24.7-24.7
	c16.6-1.3,30.4,12.5,29.1,29.1C385.9,258.3,375.3,268.9,362.2,269.9z"/>
<g>
	<g>
		<path class="st1" d="M111.7,297.1c1,6.3,3,12.4,5.9,18.2c2.3,4.6,5.7,9.1,9.7,12.3c4.7,3.8,9.6,6.7,15.4,8.2
			c4.8,1.3,10.1,1.8,15.1,1.5c11.2-0.7,21.8-4.3,31.8-9.4c9.4-4.9,18.3-11.3,25.9-18.7c4-3.9,7.6-8.2,10.9-12.7
			c3-4.2,5.3-8.6,7.3-13.4c0.3-0.8,0.7-1.7,1-2.6c1-3,0.3-7-1.3-9.6c-1.5-2.6-4.5-5.1-7.5-5.7c-3.2-0.7-6.8-0.6-9.6,1.3
			c-2.8,1.8-4.7,4.3-5.7,7.5c-0.3,0.9-0.6,1.8-1,2.7c0.4-1,0.8-2,1.3-3c-1.8,4.2-4.3,8.2-7.1,11.8c0.7-0.8,1.3-1.7,2-2.5
			c-4.6,6-10.1,11.2-16.1,15.8c0.8-0.7,1.7-1.3,2.5-2c-6.4,5-13.5,9.2-21,12.4c1-0.4,2-0.8,3-1.3c-5.2,2.2-10.7,3.9-16.3,4.6
			c1.1-0.1,2.2-0.3,3.3-0.4c-3.6,0.5-7.2,0.6-10.9,0.1c1.1,0.1,2.2,0.3,3.3,0.4c-2.6-0.4-5.2-1-7.6-2c1,0.4,2,0.8,3,1.3
			c-2.1-0.9-4.1-2.1-5.9-3.5c0.8,0.7,1.7,1.3,2.5,2c-1.9-1.5-3.5-3.1-5-5c0.7,0.8,1.3,1.7,2,2.5c-1.8-2.3-3.2-4.9-4.4-7.6
			c0.4,1,0.8,2,1.3,3c-1.7-4.1-2.8-8.4-3.5-12.7c-0.5-2.9-3.3-6.1-5.7-7.5c-2.7-1.6-6.6-2.2-9.6-1.3c-3,1-5.9,2.9-7.5,5.7
			c-0.4,1-0.8,2-1.3,3C111.1,292.7,111.1,294.9,111.7,297.1L111.7,297.1z"/>
	</g>
</g>
<g>
	<g>
		<path class="st1" d="M122.9,274.9c-5.6,0-11.4,0.7-16.7,2.4c-4.9,1.5-9.7,3.6-13.9,6.6c-8.2,5.8-14.8,13.5-19,22.6
			c-2.2,4.6-4,9.4-5.3,14.4c-1.3,5-2.1,10.2-2.6,15.4c-1,9.1-0.4,18.2,1.1,27.2c1.2,7.4,3.5,15,7.3,21.5c0.3,0.6,0.7,1.1,1.1,1.7
			c1.9,2.7,4.2,4.8,7.5,5.7c3,0.8,7,0.5,9.6-1.3c2.7-1.7,5-4.3,5.7-7.5c0.7-3.1,0.6-6.9-1.3-9.6c-1.3-1.9-2.4-3.9-3.2-6
			c0.4,1,0.8,2,1.3,3c-2.2-5.2-3.5-10.9-4.2-16.5c0.1,1.1,0.3,2.2,0.4,3.3c-1.1-8-1-16.1,0-24c-0.1,1.1-0.3,2.2-0.4,3.3
			c0.9-6.5,2.5-12.9,5-18.9c-0.4,1-0.8,2-1.3,3c1.8-4.2,4-8.2,6.8-11.8c-0.7,0.8-1.3,1.7-2,2.5c2.1-2.8,4.6-5.3,7.3-7.4
			c-0.8,0.7-1.7,1.3-2.5,2c2.6-2,5.5-3.7,8.6-5c-1,0.4-2,0.8-3,1.3c3.3-1.4,6.8-2.3,10.4-2.8c-1.1,0.1-2.2,0.3-3.3,0.4
			c2.2-0.3,4.4-0.4,6.6-0.4c3.2,0,6.6-1.4,8.8-3.7c2.2-2.2,3.8-5.7,3.7-8.8c-0.1-3.2-1.2-6.6-3.7-8.8
			C129.3,276.3,126.3,274.8,122.9,274.9L122.9,274.9z"/>
	</g>
</g>
<g>
	<g>
		<path class="st1" d="M71.4,380.3c4,8.8,10,17,17.4,23.3c7.8,6.6,16.5,11.4,26.2,14.7c8.7,2.9,18,4.3,27.1,4.7
			c9.1,0.3,18.2-0.6,27.1-2.3c9-1.8,17.8-4.8,26.1-8.8c2.7-1.3,5-4.7,5.7-7.5c0.8-3,0.5-7-1.3-9.6c-1.7-2.7-4.3-5-7.5-5.7
			c-3.4-0.8-6.5-0.3-9.6,1.3c-1.4,0.7-2.7,1.3-4.1,1.9c1-0.4,2-0.8,3-1.3c-8,3.3-16.4,5.5-25,6.7c1.1-0.1,2.2-0.3,3.3-0.4
			c-8.8,1.2-17.7,1.3-26.5,0.1c1.1,0.1,2.2,0.3,3.3,0.4c-6.8-0.9-13.5-2.6-19.9-5.3c1,0.4,2,0.8,3,1.3c-4.9-2.1-9.6-4.8-13.8-8
			c0.8,0.7,1.7,1.3,2.5,2c-3.8-3-7.2-6.4-10.2-10.2c0.7,0.8,1.3,1.7,2,2.5c-2.9-3.8-5.3-7.9-7.3-12.2c-1.2-2.7-4.8-5-7.5-5.7
			c-3-0.8-7-0.5-9.6,1.3c-2.7,1.7-5,4.3-5.7,7.5c-0.1,1.1-0.3,2.2-0.4,3.3C69.7,376.2,70.3,378.3,71.4,380.3L71.4,380.3z"/>
	</g>
</g>
<g>
	<g>
		<path class="st1" d="M189,413.5c3.2,0,6.6-1.4,8.8-3.7c2.2-2.2,3.8-5.7,3.7-8.8c-0.1-3.2-1.2-6.6-3.7-8.8
			c-2.4-2.2-5.5-3.7-8.8-3.7c-3.2,0-6.6,1.4-8.8,3.7c-2.2,2.2-3.8,5.7-3.7,8.8c0.1,3.2,1.2,6.6,3.7,8.8
			C182.6,412.1,185.6,413.5,189,413.5L189,413.5z"/>
	</g>
</g>
<g>
	<g>
		<path class="st1" d="M370.3,293.7c0.1,0.2,0.2,0.4,0.3,0.7c-0.4-1-0.8-2-1.3-3c1.1,2.7,1.8,5.5,2.2,8.3c-0.1-1.1-0.3-2.2-0.4-3.3
			c0.5,4.3,0.4,8.6-0.1,12.8c0.1-1.1,0.3-2.2,0.4-3.3c-0.7,5-2,9.9-4,14.6c0.4-1,0.8-2,1.3-3c-1.8,4.2-4,8.2-6.8,11.8
			c0.7-0.8,1.3-1.7,2-2.5c-2.3,2.9-4.9,5.6-7.8,7.9c0.8-0.7,1.7-1.3,2.5-2c-3.4,2.6-7.1,4.5-11,6.2c1-0.4,2-0.8,3-1.3
			c-4.6,1.9-9.4,3.2-14.3,3.9c1.1-0.1,2.2-0.3,3.3-0.4c-12.8,1.7-25.8-0.4-38.6,0.7c-11.7,1-23,3.9-34,7.9
			c-11.7,4.3-23.1,9.4-34.3,14.9c-9.4,4.6-18.7,9.6-28,14.6c-6.3,3.4-12.5,7-18.9,10c-0.5,0.2-1,0.4-1.5,0.6c1-0.4,2-0.8,3-1.3
			c-0.5,0.2-0.9,0.4-1.4,0.6c-3.1,1.1-5.8,2.9-7.5,5.7c-1.6,2.7-2.2,6.6-1.3,9.6c1,3,2.9,5.9,5.7,7.5c2.9,1.5,6.5,2.4,9.6,1.3
			c7.4-2.6,14.4-6.8,21.3-10.5c10.3-5.6,20.6-11.1,31.1-16.3c6.6-3.3,13.3-6.4,20.1-9.2c-1,0.4-2,0.8-3,1.3
			c12.2-5.1,24.8-9.8,38-11.6c-1.1,0.1-2.2,0.3-3.3,0.4c10.3-1.4,20.5-0.6,30.8-0.5c5.9,0,11.7-0.4,17.5-1.4c6.2-1,12-3.2,17.6-5.8
			c9.7-4.5,17.6-11.9,23.4-20.9c2.8-4.3,4.9-9,6.6-13.8c1.4-3.7,2.4-7.6,3-11.5c0.8-5.2,1.3-10.3,0.8-15.6c-0.3-2.9-0.7-5.9-1.4-8.8
			c-0.7-2.7-1.8-5.3-2.9-7.8c-1.2-2.7-4.8-5-7.5-5.7c-3-0.8-7-0.5-9.6,1.3c-2.7,1.7-5,4.3-5.7,7.5c-0.1,1.1-0.3,2.2-0.4,3.3
			C368.6,289.6,369.2,291.7,370.3,293.7L370.3,293.7z"/>
	</g>
</g>
<path class="st0" d="M436.6,477.8H40.4C18.1,477.8,0,459.7,0,437.4V41.2C0,18.9,18.1,0.8,40.4,0.8h396.2c22.3,0,40.4,18.1,40.4,40.4
	v396.2C477,459.7,458.9,477.8,436.6,477.8z"/>
<path class="st1" d="M127.6,190C96.5,189,71,214.4,72,245.6c0.9,28.2,23.9,51.2,52.1,52.1c31.1,1,56.6-24.4,55.6-55.6
	C178.8,213.9,155.8,190.9,127.6,190z M128,270.6c-16.6,1.3-30.3-12.4-29-29c1-13.1,11.6-23.6,24.7-24.7c16.6-1.3,30.3,12.4,29,29
	C151.7,259,141.1,269.6,128,270.6z"/>
<path class="st1" d="M381.4,194.2L423,45.8H180l41.8,148.3c-20,8.5-33.8,28.8-32.8,52.1c1.2,27.6,23.5,50.1,51.1,51.5
	c28,1.4,51.6-18.5,56.1-44.9h10.5c4.4,26.4,28.1,46.4,56.1,44.9c27.6-1.4,49.9-23.9,51.1-51.5C415,223,401.3,202.8,381.4,194.2z
	 M245.2,270.7c-16.6,1.3-30.4-12.5-29.1-29.1c1-13.1,11.6-23.7,24.7-24.7c16.6-1.3,30.4,12.5,29.1,29.1
	C268.9,259.1,258.3,269.7,245.2,270.7z M309.1,225.8h-15.2c-2-5.6-4.8-10.7-8.4-15.3l15.9-56.7l16,56.8
	C313.9,215.2,311,220.3,309.1,225.8z M313.6,99.8h-24.2l-26.3,93.9c-4.4-1.8-9.1-3-14-3.5L216,72.8h54h27h9h27h54l-32.9,117.3
	c-4.9,0.5-9.6,1.7-14,3.5L313.6,99.8z M362.2,270.7c-16.6,1.3-30.4-12.5-29.1-29.1c1-13.1,11.6-23.7,24.7-24.7
	c16.6-1.3,30.4,12.5,29.1,29.1C385.9,259.1,375.3,269.7,362.2,270.7z"/>
<g>
	<g>
		<path class="st1" d="M111.7,297.9c1,6.3,3,12.4,5.9,18.2c2.3,4.6,5.7,9.1,9.7,12.3c4.7,3.8,9.6,6.7,15.4,8.2
			c4.8,1.3,10.1,1.8,15.1,1.5c11.2-0.7,21.8-4.3,31.8-9.4c9.4-4.9,18.3-11.3,25.9-18.7c4-3.9,7.6-8.2,10.9-12.7
			c3-4.2,5.3-8.6,7.3-13.4c0.3-0.8,0.7-1.7,1-2.6c1-3,0.3-7-1.3-9.6c-1.5-2.6-4.5-5.1-7.5-5.7c-3.2-0.7-6.8-0.6-9.6,1.3
			c-2.8,1.8-4.7,4.3-5.7,7.5c-0.3,0.9-0.6,1.8-1,2.7c0.4-1,0.8-2,1.3-3c-1.8,4.2-4.3,8.2-7.1,11.8c0.7-0.8,1.3-1.7,2-2.5
			c-4.6,6-10.1,11.2-16.1,15.8c0.8-0.7,1.7-1.3,2.5-2c-6.4,5-13.5,9.2-21,12.4c1-0.4,2-0.8,3-1.3c-5.2,2.2-10.7,3.9-16.3,4.6
			c1.1-0.1,2.2-0.3,3.3-0.4c-3.6,0.5-7.2,0.6-10.9,0.1c1.1,0.1,2.2,0.3,3.3,0.4c-2.6-0.4-5.2-1-7.6-2c1,0.4,2,0.8,3,1.3
			c-2.1-0.9-4.1-2.1-5.9-3.5c0.8,0.7,1.7,1.3,2.5,2c-1.9-1.5-3.5-3.1-5-5c0.7,0.8,1.3,1.7,2,2.5c-1.8-2.3-3.2-4.9-4.4-7.6
			c0.4,1,0.8,2,1.3,3c-1.7-4.1-2.8-8.4-3.5-12.7c-0.5-2.9-3.3-6.1-5.7-7.5c-2.7-1.6-6.6-2.2-9.6-1.3c-3,1-5.9,2.9-7.5,5.7
			c-0.4,1-0.8,2-1.3,3C111.1,293.5,111.1,295.7,111.7,297.9L111.7,297.9z"/>
	</g>
</g>
<g>
	<g>
		<path class="st1" d="M122.9,275.7c-5.6,0-11.4,0.7-16.7,2.4c-4.9,1.5-9.7,3.6-13.9,6.6c-8.2,5.8-14.8,13.5-19,22.6
			c-2.2,4.6-4,9.4-5.3,14.4c-1.3,5-2.1,10.2-2.6,15.4c-1,9.1-0.4,18.2,1.1,27.2c1.2,7.4,3.5,15,7.3,21.5c0.3,0.6,0.7,1.1,1.1,1.7
			c1.9,2.7,4.2,4.8,7.5,5.7c3,0.8,7,0.5,9.6-1.3c2.7-1.7,5-4.3,5.7-7.5c0.7-3.1,0.6-6.9-1.3-9.6c-1.3-1.9-2.4-3.9-3.2-6
			c0.4,1,0.8,2,1.3,3c-2.2-5.2-3.5-10.9-4.2-16.5c0.1,1.1,0.3,2.2,0.4,3.3c-1.1-8-1-16.1,0-24c-0.1,1.1-0.3,2.2-0.4,3.3
			c0.9-6.5,2.5-12.9,5-18.9c-0.4,1-0.8,2-1.3,3c1.8-4.2,4-8.2,6.8-11.8c-0.7,0.8-1.3,1.7-2,2.5c2.1-2.8,4.6-5.3,7.3-7.4
			c-0.8,0.7-1.7,1.3-2.5,2c2.6-2,5.5-3.7,8.6-5c-1,0.4-2,0.8-3,1.3c3.3-1.4,6.8-2.3,10.4-2.8c-1.1,0.1-2.2,0.3-3.3,0.4
			c2.2-0.3,4.4-0.4,6.6-0.4c3.2,0,6.6-1.4,8.8-3.7c2.2-2.2,3.8-5.7,3.7-8.8c-0.1-3.2-1.2-6.6-3.7-8.8
			C129.3,277.1,126.3,275.6,122.9,275.7L122.9,275.7z"/>
	</g>
</g>
<g>
	<g>
		<path class="st1" d="M71.4,381.1c4,8.8,10,17,17.4,23.3c7.8,6.6,16.5,11.4,26.2,14.7c8.7,2.9,18,4.3,27.1,4.7
			c9.1,0.3,18.2-0.6,27.1-2.3c9-1.8,17.8-4.8,26.1-8.8c2.7-1.3,5-4.7,5.7-7.5c0.8-3,0.5-7-1.3-9.6c-1.7-2.7-4.3-5-7.5-5.7
			c-3.4-0.8-6.5-0.3-9.6,1.3c-1.4,0.7-2.7,1.3-4.1,1.9c1-0.4,2-0.8,3-1.3c-8,3.3-16.4,5.5-25,6.7c1.1-0.1,2.2-0.3,3.3-0.4
			c-8.8,1.2-17.7,1.3-26.5,0.1c1.1,0.1,2.2,0.3,3.3,0.4c-6.8-0.9-13.5-2.6-19.9-5.3c1,0.4,2,0.8,3,1.3c-4.9-2.1-9.6-4.8-13.8-8
			c0.8,0.7,1.7,1.3,2.5,2c-3.8-3-7.2-6.4-10.2-10.2c0.7,0.8,1.3,1.7,2,2.5c-2.9-3.8-5.3-7.9-7.3-12.2c-1.2-2.7-4.8-5-7.5-5.7
			c-3-0.8-7-0.5-9.6,1.3c-2.7,1.7-5,4.3-5.7,7.5c-0.1,1.1-0.3,2.2-0.4,3.3C69.7,377,70.3,379.1,71.4,381.1L71.4,381.1z"/>
	</g>
</g>
<g>
	<g>
		<path class="st1" d="M189,414.3c3.2,0,6.6-1.4,8.8-3.7c2.2-2.2,3.8-5.7,3.7-8.8c-0.1-3.2-1.2-6.6-3.7-8.8
			c-2.4-2.2-5.5-3.7-8.8-3.7c-3.2,0-6.6,1.4-8.8,3.7c-2.2,2.2-3.8,5.7-3.7,8.8c0.1,3.2,1.2,6.6,3.7,8.8
			C182.6,412.9,185.6,414.3,189,414.3L189,414.3z"/>
	</g>
</g>
<g>
	<g>
		<path class="st1" d="M370.3,294.5c0.1,0.2,0.2,0.4,0.3,0.7c-0.4-1-0.8-2-1.3-3c1.1,2.7,1.8,5.5,2.2,8.3c-0.1-1.1-0.3-2.2-0.4-3.3
			c0.5,4.3,0.4,8.6-0.1,12.8c0.1-1.1,0.3-2.2,0.4-3.3c-0.7,5-2,9.9-4,14.6c0.4-1,0.8-2,1.3-3c-1.8,4.2-4,8.2-6.8,11.8
			c0.7-0.8,1.3-1.7,2-2.5c-2.3,2.9-4.9,5.6-7.8,7.9c0.8-0.7,1.7-1.3,2.5-2c-3.4,2.6-7.1,4.5-11,6.2c1-0.4,2-0.8,3-1.3
			c-4.6,1.9-9.4,3.2-14.3,3.9c1.1-0.1,2.2-0.3,3.3-0.4c-12.8,1.7-25.8-0.4-38.6,0.7c-11.7,1-23,3.9-34,7.9
			c-11.7,4.3-23.1,9.4-34.3,14.9c-9.4,4.6-18.7,9.6-28,14.6c-6.3,3.4-12.5,7-18.9,10c-0.5,0.2-1,0.4-1.5,0.6c1-0.4,2-0.8,3-1.3
			c-0.5,0.2-0.9,0.4-1.4,0.6c-3.1,1.1-5.8,2.9-7.5,5.7c-1.6,2.7-2.2,6.6-1.3,9.6c1,3,2.9,5.9,5.7,7.5c2.9,1.5,6.5,2.4,9.6,1.3
			c7.4-2.6,14.4-6.8,21.3-10.5c10.3-5.6,20.6-11.1,31.1-16.3c6.6-3.3,13.3-6.4,20.1-9.2c-1,0.4-2,0.8-3,1.3
			c12.2-5.1,24.8-9.8,38-11.6c-1.1,0.1-2.2,0.3-3.3,0.4c10.3-1.4,20.5-0.6,30.8-0.5c5.9,0,11.7-0.4,17.5-1.4c6.2-1,12-3.2,17.6-5.8
			c9.7-4.5,17.6-11.9,23.4-20.9c2.8-4.3,4.9-9,6.6-13.8c1.4-3.7,2.4-7.6,3-11.5c0.8-5.2,1.3-10.3,0.8-15.6c-0.3-2.9-0.7-5.9-1.4-8.8
			c-0.7-2.7-1.8-5.3-2.9-7.8c-1.2-2.7-4.8-5-7.5-5.7c-3-0.8-7-0.5-9.6,1.3c-2.7,1.7-5,4.3-5.7,7.5c-0.1,1.1-0.3,2.2-0.4,3.3
			C368.6,290.4,369.2,292.5,370.3,294.5L370.3,294.5z"/>
	</g>
</g>
</svg>
