<svg xmlns="http://www.w3.org/2000/svg" xmlns:xlink="http://www.w3.org/1999/xlink" viewBox="0 0 477 477" xmlns:v="https://vecta.io/nano"><path d="M436.6 477H40.4C18.1 477 0 458.9 0 436.6V40.4C0 18.1 18.1 0 40.4 0h396.2C458.9 0 477 18.1 477 40.4v396.2c0 22.3-18.1 40.4-40.4 40.4z" fill="#99425b"/><g fill="#fff"><path d="M127.6 189.2c-31.1-1-56.6 24.4-55.6 55.6.9 28.2 23.9 51.2 52.1 52.1 31.1 1 56.6-24.4 55.6-55.6-.9-28.3-23.9-51.2-52.1-52.1zm.4 80.6c-16.6 1.3-30.3-12.4-29-29 1-13.1 11.6-23.6 24.7-24.7 16.6-1.3 30.3 12.4 29 29-1 13.1-11.6 23.7-24.7 24.7zm253.4-76.4L423 45H180l41.8 148.3c-20 8.5-33.8 28.8-32.8 52.1 1.2 27.6 23.5 50.1 51.1 51.5 28 1.4 51.6-18.5 56.1-44.9h10.5c4.4 26.4 28.1 46.4 56.1 44.9 27.6-1.4 49.9-23.9 51.1-51.5 1.1-23.2-12.6-43.4-32.5-52zm-136.2 76.5c-16.6 1.3-30.4-12.5-29.1-29.1 1-13.1 11.6-23.7 24.7-24.7 16.6-1.3 30.4 12.5 29.1 29.1-1 13.1-11.6 23.7-24.7 24.7zm63.9-44.9h-15.2c-2-5.6-4.8-10.7-8.4-15.3l15.9-56.7 16 56.8c-3.5 4.6-6.4 9.7-8.3 15.2zm4.5-126h-24.2l-26.3 93.9a50.47 50.47 0 0 0-14-3.5L216 72h54 27 9 27 54l-32.9 117.3a50.47 50.47 0 0 0-14 3.5L313.6 99zm48.6 170.9c-16.6 1.3-30.4-12.5-29.1-29.1 1-13.1 11.6-23.7 24.7-24.7 16.6-1.3 30.4 12.5 29.1 29.1-1 13.1-11.6 23.7-24.7 24.7z"/><use xlink:href="#B"/><use xlink:href="#C"/><use xlink:href="#D"/><use xlink:href="#E"/><use xlink:href="#F"/></g><path d="M436.6 477.8H40.4C18.1 477.8 0 459.7 0 437.4V41.2C0 18.9 18.1.8 40.4.8h396.2C458.9.8 477 18.9 477 41.2v396.2c0 22.3-18.1 40.4-40.4 40.4z" fill="#99425b"/><g fill="#fff"><path d="M127.6 190C96.5 189 71 214.4 72 245.6c.9 28.2 23.9 51.2 52.1 52.1 31.1 1 56.6-24.4 55.6-55.6-.9-28.2-23.9-51.2-52.1-52.1zm.4 80.6c-16.6 1.3-30.3-12.4-29-29 1-13.1 11.6-23.6 24.7-24.7 16.6-1.3 30.3 12.4 29 29-1 13.1-11.6 23.7-24.7 24.7zm253.4-76.4L423 45.8H180l41.8 148.3c-20 8.5-33.8 28.8-32.8 52.1 1.2 27.6 23.5 50.1 51.1 51.5 28 1.4 51.6-18.5 56.1-44.9h10.5c4.4 26.4 28.1 46.4 56.1 44.9 27.6-1.4 49.9-23.9 51.1-51.5 1.1-23.2-12.6-43.4-32.5-52zm-136.2 76.5c-16.6 1.3-30.4-12.5-29.1-29.1 1-13.1 11.6-23.7 24.7-24.7 16.6-1.3 30.4 12.5 29.1 29.1-1 13.1-11.6 23.7-24.7 24.7zm63.9-44.9h-15.2c-2-5.6-4.8-10.7-8.4-15.3l15.9-56.7 16 56.8c-3.5 4.6-6.4 9.7-8.3 15.2zm4.5-126h-24.2l-26.3 93.9a50.47 50.47 0 0 0-14-3.5L216 72.8h54 27 9 27 54l-32.9 117.3a50.47 50.47 0 0 0-14 3.5l-26.5-93.8zm48.6 170.9c-16.6 1.3-30.4-12.5-29.1-29.1 1-13.1 11.6-23.7 24.7-24.7 16.6-1.3 30.4 12.5 29.1 29.1-1 13.1-11.6 23.7-24.7 24.7z"/><use xlink:href="#B" y="0.8"/><use xlink:href="#C" y="0.8"/><use xlink:href="#D" y="0.8"/><use xlink:href="#E" y="0.8"/><use xlink:href="#F" y="0.8"/></g><defs ><path id="B" d="M111.7 297.1c1 6.3 3 12.4 5.9 18.2 2.3 4.6 5.7 9.1 9.7 12.3 4.7 3.8 9.6 6.7 15.4 8.2 4.8 1.3 10.1 1.8 15.1 1.5 11.2-.7 21.8-4.3 31.8-9.4 9.4-4.9 18.3-11.3 25.9-18.7 4-3.9 7.6-8.2 10.9-12.7 3-4.2 5.3-8.6 7.3-13.4.3-.8.7-1.7 1-2.6 1-3 .3-7-1.3-9.6-1.5-2.6-4.5-5.1-7.5-5.7-3.2-.7-6.8-.6-9.6 1.3-2.8 1.8-4.7 4.3-5.7 7.5-.3.9-.6 1.8-1 2.7.4-1 .8-2 1.3-3-1.8 4.2-4.3 8.2-7.1 11.8.7-.8 1.3-1.7 2-2.5-4.6 6-10.1 11.2-16.1 15.8.8-.7 1.7-1.3 2.5-2-6.4 5-13.5 9.2-21 12.4 1-.4 2-.8 3-1.3-5.2 2.2-10.7 3.9-16.3 4.6 1.1-.1 2.2-.3 3.3-.4-3.6.5-7.2.6-10.9.1 1.1.1 2.2.3 3.3.4-2.6-.4-5.2-1-7.6-2 1 .4 2 .8 3 1.3-2.1-.9-4.1-2.1-5.9-3.5.8.7 1.7 1.3 2.5 2a29.57 29.57 0 0 1-5-5c.7.8 1.3 1.7 2 2.5-1.8-2.3-3.2-4.9-4.4-7.6.4 1 .8 2 1.3 3-1.7-4.1-2.8-8.4-3.5-12.7-.5-2.9-3.3-6.1-5.7-7.5-2.7-1.6-6.6-2.2-9.6-1.3-3 1-5.9 2.9-7.5 5.7-.4 1-.8 2-1.3 3-.8 2.2-.8 4.4-.2 6.6h0z"/><path id="C" d="M122.9 274.9c-5.6 0-11.4.7-16.7 2.4-4.9 1.5-9.7 3.6-13.9 6.6-8.2 5.8-14.8 13.5-19 22.6-2.2 4.6-4 9.4-5.3 14.4s-2.1 10.2-2.6 15.4c-1 9.1-.4 18.2 1.1 27.2 1.2 7.4 3.5 15 7.3 21.5.3.6.7 1.1 1.1 1.7 1.9 2.7 4.2 4.8 7.5 5.7 3 .8 7 .5 9.6-1.3 2.7-1.7 5-4.3 5.7-7.5.7-3.1.6-6.9-1.3-9.6-1.3-1.9-2.4-3.9-3.2-6 .4 1 .8 2 1.3 3-2.2-5.2-3.5-10.9-4.2-16.5.1 1.1.3 2.2.4 3.3-1.1-8-1-16.1 0-24-.1 1.1-.3 2.2-.4 3.3.9-6.5 2.5-12.9 5-18.9-.4 1-.8 2-1.3 3 1.8-4.2 4-8.2 6.8-11.8-.7.8-1.3 1.7-2 2.5 2.1-2.8 4.6-5.3 7.3-7.4-.8.7-1.7 1.3-2.5 2 2.6-2 5.5-3.7 8.6-5-1 .4-2 .8-3 1.3 3.3-1.4 6.8-2.3 10.4-2.8-1.1.1-2.2.3-3.3.4 2.2-.3 4.4-.4 6.6-.4 3.2 0 6.6-1.4 8.8-3.7 2.2-2.2 3.8-5.7 3.7-8.8-.1-3.2-1.2-6.6-3.7-8.8-2.4-2.4-5.4-3.9-8.8-3.8h0z"/><path id="D" d="M71.4 380.3c4 8.8 10 17 17.4 23.3 7.8 6.6 16.5 11.4 26.2 14.7 8.7 2.9 18 4.3 27.1 4.7 9.1.3 18.2-.6 27.1-2.3 9-1.8 17.8-4.8 26.1-8.8 2.7-1.3 5-4.7 5.7-7.5.8-3 .5-7-1.3-9.6-1.7-2.7-4.3-5-7.5-5.7-3.4-.8-6.5-.3-9.6 1.3-1.4.7-2.7 1.3-4.1 1.9 1-.4 2-.8 3-1.3-8 3.3-16.4 5.5-25 6.7 1.1-.1 2.2-.3 3.3-.4-8.8 1.2-17.7 1.3-26.5.1 1.1.1 2.2.3 3.3.4-6.8-.9-13.5-2.6-19.9-5.3 1 .4 2 .8 3 1.3-4.9-2.1-9.6-4.8-13.8-8 .8.7 1.7 1.3 2.5 2a61.52 61.52 0 0 1-10.2-10.2c.7.8 1.3 1.7 2 2.5-2.9-3.8-5.3-7.9-7.3-12.2-1.2-2.7-4.8-5-7.5-5.7-3-.8-7-.5-9.6 1.3-2.7 1.7-5 4.3-5.7 7.5-.1 1.1-.3 2.2-.4 3.3 0 1.9.6 4 1.7 6h0z"/><path id="E" d="M189 413.5c3.2 0 6.6-1.4 8.8-3.7 2.2-2.2 3.8-5.7 3.7-8.8-.1-3.2-1.2-6.6-3.7-8.8-2.4-2.2-5.5-3.7-8.8-3.7-3.2 0-6.6 1.4-8.8 3.7-2.2 2.2-3.8 5.7-3.7 8.8.1 3.2 1.2 6.6 3.7 8.8 2.4 2.3 5.4 3.7 8.8 3.7h0z"/><path id="F" d="M370.3 293.7c.1.2.2.4.3.7l-1.3-3c1.1 2.7 1.8 5.5 2.2 8.3l-.4-3.3c.5 4.3.4 8.6-.1 12.8.1-1.1.3-2.2.4-3.3-.7 5-2 9.9-4 14.6.4-1 .8-2 1.3-3-1.8 4.2-4 8.2-6.8 11.8.7-.8 1.3-1.7 2-2.5-2.3 2.9-4.9 5.6-7.8 7.9.8-.7 1.7-1.3 2.5-2-3.4 2.6-7.1 4.5-11 6.2 1-.4 2-.8 3-1.3a59.45 59.45 0 0 1-14.3 3.9c1.1-.1 2.2-.3 3.3-.4-12.8 1.7-25.8-.4-38.6.7-11.7 1-23 3.9-34 7.9-11.7 4.3-23.1 9.4-34.3 14.9-9.4 4.6-18.7 9.6-28 14.6-6.3 3.4-12.5 7-18.9 10l-1.5.6c1-.4 2-.8 3-1.3-.5.2-.9.4-1.4.6-3.1 1.1-5.8 2.9-7.5 5.7-1.6 2.7-2.2 6.6-1.3 9.6 1 3 2.9 5.9 5.7 7.5 2.9 1.5 6.5 2.4 9.6 1.3 7.4-2.6 14.4-6.8 21.3-10.5 10.3-5.6 20.6-11.1 31.1-16.3 6.6-3.3 13.3-6.4 20.1-9.2-1 .4-2 .8-3 1.3 12.2-5.1 24.8-9.8 38-11.6-1.1.1-2.2.3-3.3.4 10.3-1.4 20.5-.6 30.8-.5 5.9 0 11.7-.4 17.5-1.4 6.2-1 12-3.2 17.6-5.8 9.7-4.5 17.6-11.9 23.4-20.9 2.8-4.3 4.9-9 6.6-13.8 1.4-3.7 2.4-7.6 3-11.5.8-5.2 1.3-10.3.8-15.6-.3-2.9-.7-5.9-1.4-8.8-.7-2.7-1.8-5.3-2.9-7.8-1.2-2.7-4.8-5-7.5-5.7-3-.8-7-.5-9.6 1.3-2.7 1.7-5 4.3-5.7 7.5-.1 1.1-.3 2.2-.4 3.3-.2 2 .4 4.1 1.5 6.1h0z"/></defs></svg>