<?xml version="1.0" encoding="utf-8"?>
<!-- Generator: Adobe Illustrator 25.2.0, SVG Export Plug-In . SVG Version: 6.00 Build 0)  -->
<svg version="1.1" id="Calque_1" xmlns="http://www.w3.org/2000/svg" xmlns:xlink="http://www.w3.org/1999/xlink" x="0px" y="0px"
	 viewBox="0 0 288 333.9" style="enable-background:new 0 0 288 333.9;" xml:space="preserve">
<style type="text/css">
	.st0{display:none;fill:#FFFFFF;}
	.st1{display:none;opacity:0.15;enable-background:new    ;}
	.st2{display:none;fill:#479CD5;}
	.st3{display:none;}
	.st4{display:inline;fill:#255DA8;}
	.st5{fill:#001E2B;}
</style>
<rect x="45" y="53.5" class="st0" width="192.1" height="217.4"/>
<polygon class="st1" points="144,0.9 144,333.9 261.5,295.3 287.7,0.9 "/>
<path class="st2" d="M288,0L0,0.1v0.1l0,0l25.7,294.3L144.3,333l117.5-38.6L288,0z M231,94.7l-86.7,36.6l-0.2,0.1H228l-9.6,109
	l-74.1,21.1L71,240.3l-4.8-55H103l2.4,28.5l38.9,9.7l41-11.5l2.8-45.7L63.7,166L61,131.6l89.2-36.9l-92.9-0.3l-4-34.7l181.3-0.2
	L231,94.7z"/>
<g class="st3">
	<polygon class="st4" points="144,95.6 144,98.2 150.2,95.6 	"/>
	<polygon class="st4" points="185.2,212.9 188,167.2 144,167.1 144,224.3 144.3,224.4 	"/>
	<polygon class="st4" points="144,0.9 144,60.5 234.7,60.4 231,95.6 144.4,132.3 144.2,132.4 228,132.4 218.4,241.4 144.3,262.5 
		144,262.5 144,333.8 144.3,333.9 261.8,295.3 288,0.9 	"/>
</g>
<path class="st5" d="M173,37.2c-14-16.6-26.1-33.5-28.5-37c-0.3-0.3-0.6-0.3-0.9,0c-2.5,3.5-14.5,20.4-28.5,37
	c-120.3,153.4,18.9,256.9,18.9,256.9l1.2,0.8c1,16,3.6,39,3.6,39h5.2h5.2c0,0,2.6-22.9,3.6-39l1.2-0.9
	C154,294.1,293.3,190.6,173,37.2z M143.9,291.8c0,0-6.2-5.3-7.9-8.1v-0.3l7.5-167c0-0.5,0.8-0.5,0.8,0l7.5,167v0.3
	C150.2,286.5,143.9,291.8,143.9,291.8z"/>
</svg>
