<?xml version="1.0" encoding="utf-8"?>
<!-- Generator: Adobe Illustrator 25.2.0, SVG Export Plug-In . SVG Version: 6.00 Build 0)  -->
<svg version="1.1" id="Calque_1" xmlns:v="https://vecta.io/nano"
	 xmlns="http://www.w3.org/2000/svg" xmlns:xlink="http://www.w3.org/1999/xlink" x="0px" y="0px" viewBox="0 0 120 125.1"
	 style="enable-background:new 0 0 120 125.1;" xml:space="preserve">
<style type="text/css">
	.st0{fill:#FFFFFF;}
</style>
<polygon class="st0" points="117.5,25.9 114.8,111.7 23.2,117.4 6.7,25.9 6.7,9.4 86.7,3.7 "/>
<path d="M20.7,21.9c3.9,3.2,5.4,2.9,12.7,2.4l68.9-4.1c1.5,0,0.2-1.5-0.2-1.7l-11.4-8.3c-2.2-1.7-5.1-3.7-10.7-3.2L13.1,12
	c-2.4,0.2-2.9,1.5-1.9,2.4L20.7,21.9z M24.8,38v72.5c0,3.9,1.9,5.4,6.3,5.1l75.7-4.4c4.4-0.2,4.9-2.9,4.9-6.1v-72
	c0-3.2-1.2-4.9-3.9-4.6l-79.1,4.6C25.8,33.4,24.8,34.8,24.8,38z M99.6,41.9c0.5,2.2,0,4.4-2.2,4.6l-3.6,0.7v53.5
	c-3.2,1.7-6.1,2.7-8.5,2.7c-3.9,0-4.9-1.2-7.8-4.9L53.5,61.1v36.2l7.5,1.7c0,0,0,4.4-6.1,4.4l-16.8,1c-0.5-1,0-3.4,1.7-3.9l4.4-1.2
	V51.4l-6.1-0.5c-0.5-2.2,0.7-5.4,4.1-5.6l18-1.2L85.2,82V48.4l-6.3-0.7c-0.5-2.7,1.5-4.6,3.9-4.9L99.6,41.9z M7.5,5.4l69.4-5.1
	C85.4-0.4,87.6,0,93,3.9l22.1,15.6c3.7,2.7,4.9,3.4,4.9,6.3v85.4c0,5.4-1.9,8.5-8.8,9l-80.6,4.9c-5.1,0.2-7.5-0.5-10.2-3.9L4.1,100
	C1.2,96.1,0,93.2,0,89.8V13.9C0,9.5,1.9,5.9,7.5,5.4z"/>
</svg>
