<svg xmlns="http://www.w3.org/2000/svg" viewBox="0 0 324 324" xmlns:v="https://vecta.io/nano"><circle cx="162" cy="162" r="162" fill="#cd669a"/><path d="M265.7 68.7c-7.4-28.9-55.9-38.4-101.6-22.3-27.2 9.6-56.8 24.6-78 44.3-25.2 23.3-29.3 43.7-27.6 52.2 5.7 29.5 45.9 48.9 63.4 63.4h0l-10.2 5.9c-29.9 17.3-41.4 30.3-42.4 47.4-.7 12.7 4.7 21.6 14.1 23.4h0c24.8 4.9 50.4-11 58.4-36.3 2.7-8.6 3.3-22.2 1.3-30.9-1.3-6.1-1.1-6.3 8.6-7.2 12.9-1.2 28.2 2.3 36.8 8.6 5.1 3.6 9.4 10.8 10 16.6.7 5.5-2.4 12-7.3 15.1-10.5 7.9 5.6 4.8 10.4-3 6.9-9.8 4.9-23.6-5-34.3-9.2-10-20-13.9-37.9-13.8-6.7 0-14.8.7-17.9 1.4-4.3 1-5.5 1.3-6.6.4-18.6-19.4-52.4-33.2-51-59.4.5-9.6 3.9-34.8 65.8-65.3 50.7-25 91.3-18.1 98.3-2.9 10 21.8-21.7 62.3-74.4 68.2-20.1 2.2-30.6-5.5-33.3-8.3-2.8-3-3.2-3.1-4.2-2.6-1.7.9-.6 3.6 0 5.2 1.6 4 8 11.2 19 14.8 9.6 3.1 33.2 4.9 61.7-6 32-12.2 56.9-46.2 49.6-74.6zM130 234.1c-2.6 12.8-11.9 25-22.5 30-15.6 7.3-22.8 1.5-17.1-13.5 2.7-7.1 8.5-14.3 16.6-20.9 8.4-6.6 20.6-14 21.8-13.2 1.7 1.1 2.4 11.7 1.2 17.6z" fill="#fff"/></svg>