<?xml version="1.0" encoding="utf-8"?>
<!-- Generator: Adobe Illustrator 25.2.0, SVG Export Plug-In . SVG Version: 6.00 Build 0)  -->
<svg version="1.1" id="Calque_1" xmlns="http://www.w3.org/2000/svg" xmlns:xlink="http://www.w3.org/1999/xlink" x="0px" y="0px"
	 viewBox="0 0 304.9 302.7" style="enable-background:new 0 0 304.9 302.7;" xml:space="preserve">
<style type="text/css">
	.st0{fill:#415870;}
	.st1{fill:#189AB6;}
</style>
<path class="st0" d="M73.7,145.1c2.7-12.3,7.6-24.1,14.3-34.8c6.4-10.3,14.4-19.5,23.5-27.5c-7,6.1-13.3,13-18.7,20.5
	C96.6,98,101,93,105.9,88.6c4.9-4.5,10.3-8.5,16-11.9c-2,2-4.2,3.9-6.4,5.7c-2.3,2-4.3,4-4.6,5.2c-12.3,11.2-22.5,24.6-29.8,39.5
	c-7.4,15-11.5,31.4-12.3,48.1c-1.4-5.5-1.3-11.4,0.5-16.8C70.7,153.6,72.6,149.6,73.7,145.1"/>
<path class="st0" d="M155.8,62.4c-3.2,1-6.2,2.1-9.2,3.2C149.6,64.2,152.6,63.2,155.8,62.4"/>
<path class="st0" d="M194.5,279.8c3.4-0.4,6.8-0.9,10-1.4C201.3,279.2,197.9,279.7,194.5,279.8"/>
<path class="st0" d="M79,188.1l1.5,5.6c2.2,14.5,7.1,28.5,14.6,41.2c-4.4-7.1-8.1-14.6-11.1-22.4C80.9,204.7,79.2,196.4,79,188.1"/>
<path class="st0" d="M81.3,172.5c0.1-14.2,3.8-28.1,10.8-40.4C85.4,144.6,81.7,158.4,81.3,172.5"/>
<path class="st0" d="M265.2,219.1c-0.3-0.1-0.4-0.4-0.4-0.8c0.1-0.3,0.2-0.7,0.1-1c2.6-3.9,5-8,7-12.2c-0.1,1.2-0.3,2.3-0.6,3.5
	c-1,1.7-2,3.4-3.3,4.9C266.9,215.2,265.9,217,265.2,219.1"/>
<path class="st0" d="M190.8,280.1l-0.4,0.1c-1.2,0.1-2.3,0.2-3.5,0.2l-0.4-0.1C188,280.2,189.4,280.1,190.8,280.1"/>
<path class="st0" d="M261.8,224c-0.5-0.3-1-0.4-1.6-0.4c1.6-2,3.2-4.1,4.7-6.3c-0.1,0.3-0.1,0.6-0.1,0.9
	C264.3,220,262.4,222,261.8,224"/>
<path class="st0" d="M212.9,254.6c-1.5,0.5-2.6,1.9-3.3,2.4c-4.3,0.3-8.5,0.3-13.4,0.3c-0.7,0.4-2.3,0.5-3.8,1.1
	c-0.9-0.4-1.9-0.8-2.9-1.1c11.1,0.1,22.1-1.8,32.4-5.8C218.9,252.8,216,253.8,212.9,254.6"/>
<path class="st0" d="M163.5,79.1c8.2-2.6,17.5-3.4,26.6-3.1s18,1.7,26.5,2.6c-9.2-3.7-21.1-5.7-31-6.2s-17.9-0.1-19.9-2.1
	s5.1-4,15-4.4c5.3-0.1,10.6,0.1,15.8,0.8c5.3,0.6,10.4,1.6,14.4,2.4c-2.1-0.9-2.1-0.9-4.2-1.8c2.1,0.9,4.2,1.8,6.2,1.7
	c-2.6-1.2-5.4-2.2-8.1-3.1c-2.9-1-5.7-1.9-6.9-2.8c1.4-0.3,2.8-0.5,4.2-0.8c-5.6-2.5-14.3-4-23.1-4.2s-17.8,0.5-24.3,0.6
	c16.3-1.9,32.7-1.3,48.8,1.7c17.3,3.3,33.8,10,48.5,19.6c15.3,10.1,28.1,23.6,37.4,39.4c9.2,15.8,14.5,33.6,15.3,51.8
	c2.8,39.3-12.1,77.7-40.6,104.9c-4.2,3.5-8.8,6.6-13.6,9.1c-6,3.2-12.2,5.9-18.6,7.9c-20.2,8.1-42.6,10.9-64.6,8.9
	c-23.4-3-45.4-13.6-63-29.3S72.9,236,65.4,212.2c-1.5-4.8-1.7-10.8-0.7-12.6c0.5-0.9,1.2-0.8,2.3,1s2.3,5.2,4.4,10.7
	c7.2,18.2,18,34.7,31.7,48.6c-1.3-0.3-3.5-2.2-5.6-4.6c-1.9-2.2-4-4.3-6.1-6.4c3.8,5.7,8.2,11.1,13.1,15.9
	c4.8,4.8,10.2,9.1,15.9,12.8c-8.1-5.2-15.5-11.4-22.1-18.3c8.6,9.1,18.6,16.8,29.5,23c11.4,6.4,23.8,10.9,36.7,13.2
	c4.7,0.9,8.9,2.7,13.9,3.9c5.7,1.5,11.7,1.4,17.4-0.3c-17.3,0-34.4-3.5-50.3-10.4c-15.8-6.8-30.2-16.7-42.3-28.9c0.1,0,0.1,0,0.2,0
	c-10.4-10.3-18.8-22.6-24.7-36c2,4.1,4.4,8.1,6.3,11.7c-9.6-19.2-14.9-39.9-14.7-60.8c1.3,14.9,4.9,29.4,10.8,43.2
	c6,14,14.4,26.7,25,37.6c10.6,11,23.2,19.7,37.2,25.8c13.6,5.9,28.3,9,43.2,8.9c-8.1-1.4-17.4-2.4-26.3-4.5s-17.3-5.5-22.8-10.1
	c23.7,12.2,50.8,16.1,76.9,11l-5.7,1.7c8.6-0.7,17.1-2.8,25-6.3c7.9-3.5,15.5-7.7,22.7-12.6c1.3-0.8,2.5-1.7,3.8-2.6l-3.8,2.6
	c-12.8,8.4-27,14.2-42,17.1c6.5-2,13.4-4.1,21.5-7.3c-4.7,1-11.1,2.9-17.6,4.1c-8.4,2.2-17.1,3.3-25.8,3.4
	c12.8-0.5,25.4-3.7,36.8-9.4c-16.8,5.5-35.3,7.7-52.7,5c9.6,1,19.3,0.6,28.8-1c16.3-1.9,31.9-7.6,45.7-16.5l-1.5,1.1
	c1.1-0.7,2.1-1.4,3.1-2.2c5.4-3.7,10.4-7.9,15.1-12.5c4-4.2,7.3-9,10-14.2l1.6-2.4c-0.6,1.8-0.8,2.8,1.4,0c4.8-6.3,8.5-13.3,11-20.8
	c2.8-7.7,4.8-15.9,7-24.4c1.1-4.5,1.4-10.8,0.8-17.4c0.3-1.2,0.2-2.5-0.4-3.6c-0.2-1.4-0.4-2.9-0.6-4.3c-0.3-3.5-1-7-1.9-10.4
	c0.7,3.4,1.4,6.8,1.9,10.4l0.4,3.9c-0.7-1.1-1.1-2.4-1.2-3.7c1,12.2-0.2,24.5-3.3,36.4c-3.2,12.1-8.4,23.5-15.2,33.9
	c0.5-1.5,1.3-3.5,1.5-4.3c-1,2.3-2,4.5-3.2,6.7c-4.6,6.7-9.9,12.9-15.8,18.5c1.5-1.7,2.8-3.5,4-5.4c-8.2,8.1-17.5,14.9-27.7,20.2
	c-10.3,5.3-21.3,9-32.7,11c-21.4,2.5-43.1-1.5-62.2-11.4c10.2,6.4,21.6,10.7,33.5,12.4c-16.5-1.7-32.4-7.2-46.4-16.2
	c-13.9-9-25.4-21.3-33.4-35.8c4.4,4.2,10.2,9.9,14.2,11.1c0.6-0.8-5.2-8.9-1.1-4.7c7.6,7.3,14.2,13,20.3,17.1
	c6.1,4,11.6,6.1,16.6,5.2c1-0.4-2.7-4.3-5.2-8.1s-4.2-7.2-1.3-5.8c7.3,4.2,15.1,7.6,23.1,9.9c2.9,1.1,5.8,2,8.8,2.6
	c0.4,0.2,1.1,0,2-0.2c10.9,1.8,21.4,1.1,27.2,0.6c2.2-0.1,4.3-0.4,6.4-0.8c1.1,0,2.1,0.2,3.1,0.6c1.2-0.8,2.5-1.4,3.7-2
	c5.6-1.4,11-3.4,16.1-6c3.1-1,6-2.3,8.9-3.7c-0.3-0.3-1-0.4-0.7-1.1c6-4,11.4-8.7,16.1-14.1c2.1-1.8,4.4-3.5,6.7-5
	c0.9-4.2,4.1-9.8,7-16.2s5.5-13.7,6.3-19.9h-0.1c1.2-6.3,1.6-12.6,1.4-19c0.3-1.1,0.6-2.1,1-3.1c-0.7-1.6-0.9-3.2-1.3-4
	c-0.2-5.2-0.5-9.6-1-14.1c-0.5-0.7-2-1.8-2.6-3.4c-1-3.2-2.2-6.2-3.7-9.2c-1.5-3.5-3.3-6.9-5.2-10.2c-6.6-11.3-15.4-21.1-25.9-28.8
	c-0.1-0.6,0-1.1,0.3-1.6c-2.1-0.5-4.3-2.4-6.1-2.9c0.4,0,0.7-0.1,0.8-0.4c-2.1-0.7-4.1-1.6-5.9-2.8c-1.7-1.2-3.5-2.3-5.3-3.2
	c-1.2-0.2-2.4-0.4-3.6-0.5c-0.6-0.2-1.1-0.4-1.7-0.7c-5.3-4.1-11.8-4.6-18.7-5.2c-7-1.2-14.1-1.6-21.2-1.2
	c-5.6,0.4-8.1-0.6-12.3-0.6"/>
<path class="st0" d="M272.7,203.5c2.6-5.7,4.5-11.6,5.9-17.6C277.6,192.5,276.9,198.7,272.7,203.5"/>
<path class="st0" d="M137.5,241.2c-1.3-2.3-2.8-4.6-4.4-6.7c10.7,10.2,23.9,17.3,38.3,20.6v0.1c-5.9-1-12.7-3.8-18.7-6.8
	S141.6,242.2,137.5,241.2"/>
<path class="st0" d="M264.8,218.3c0-0.3,0.1-0.6,0.1-0.9l0,0C264.9,217.7,264.9,218,264.8,218.3"/>
<path class="st0" d="M100.8,231.3l-0.9-1.5c2.6,3.7,5.4,7.3,8.4,10.8C105.5,237.7,103,234.6,100.8,231.3"/>
<path class="st0" d="M86.1,185.2c-1.2-9.2-1.1-18.5,0.3-27.6c2.2-11.4,6.8-22.1,13.4-31.6C89.4,143.9,84.7,164.5,86.1,185.2"/>
<path class="st0" d="M119.4,219.2c-1.2-2.8-2.3-5.7-3.1-8.7c1.2,2.7,2.6,5.4,4.2,8C119.8,218.3,119.6,218.9,119.4,219.2"/>
<path class="st0" d="M127.6,258.1l-2.2-1.6c2.1,1.2,4.2,2.3,6.3,3.3C130.9,259.5,129,258.7,127.6,258.1"/>
<path class="st0" d="M110.2,188.4c0.2,2.2,0.6,4.4,1,6.5c-0.6-1.2-1.1-2.4-1.8-3.6C109.8,190.4,110,189.4,110.2,188.4"/>
<path class="st0" d="M111.3,154.6c0.7-2.8,1.7-5.6,2.9-8.2c-1.1,3.3-2,6.7-2.7,10.1C111.3,155.7,111.1,155,111.3,154.6"/>
<path class="st1" d="M137.8,16.4c9,3.9,17.2,9.3,24.4,16c6.9,6.4,12.7,13.8,17.4,22c-3.6-6.2-7.9-12-12.9-17.2
	c3.5,3.7,6.6,7.8,9.3,12.2c2.7,4.4,4.9,9.1,6.7,13.9c-1.2-1.8-2.3-3.7-3.4-5.7c-1.2-2-2.4-3.9-3.3-4.3
	c-6.7-11.1-15.4-20.7-25.7-28.5c-10.3-7.8-22.2-13.4-34.8-16.5c4.4-0.3,8.9,0.7,12.8,2.8C131.8,12.8,134.6,14.9,137.8,16.4"/>
<path class="st1" d="M188.8,91.2c-0.3-2.6-0.7-5-1.1-7.5C188.3,86.1,188.7,88.6,188.8,91.2"/>
<path class="st1" d="M17.4,88.5c-0.2,2.6-0.3,5.3-0.4,7.9C16.8,93.7,17,91,17.4,88.5"/>
<path class="st1" d="M104.4,14l-4.4,0.3c-11.4-0.5-22.8,1.2-33.5,5c6-2.3,12.3-4,18.7-5.2C91.4,13,98,13,104.4,14"/>
<path class="st1" d="M115.9,18.1c10.8,2.2,20.8,7.1,29.2,14.2C136.5,25.4,126.5,20.5,115.9,18.1"/>
<path class="st1" d="M53.2,151.2c0.1-0.2,0.4-0.2,0.6-0.1c0.2,0.1,0.5,0.2,0.7,0.2c2.6,2.6,5.3,5,8.2,7.1c-0.9-0.3-1.7-0.6-2.6-1
	c-1.2-1-2.3-2.1-3.3-3.2C55.8,153.1,54.6,152.1,53.2,151.2"/>
<path class="st1" d="M17.8,85.5l-0.1-0.3c0.1-0.9,0.2-1.8,0.4-2.7l0.1-0.3C18.1,83.3,18,84.4,17.8,85.5"/>
<path class="st1" d="M49.9,148c0.3-0.3,0.5-0.7,0.5-1.1c1.3,1.6,2.7,3,4.1,4.5c-0.2-0.1-0.5-0.2-0.7-0.2
	C52.6,150.4,51.4,148.7,49.9,148"/>
<path class="st1" d="M33.9,106.1c-0.3-1-0.7-2-1.3-2.9c0.4-3.3,1-6.6,1.8-10.3c-0.2-0.6,0-1.9-0.3-3.1c0.5-0.6,0.9-1.3,1.3-2
	c-1.7,8.4-1.9,17-0.4,25.5C34.4,111,34,108.6,33.9,106.1"/>
<path class="st1" d="M174.9,94.5c0.7,6.9,0.1,14-1.6,20.7c-1.6,6.9-3.9,13.5-5.9,19.8c4.1-6.5,7.5-15.2,9.3-22.6s2.8-13.6,4.6-14.9
	s2.3,4.5,1.1,12.1c-0.7,4.1-1.6,8-2.9,11.9c-1.3,4-2.8,7.6-4,10.6c1-1.4,1-1.4,2-2.9c-1,1.3-1.8,2.8-2.2,4.5
	c1.3-1.8,2.5-3.8,3.6-5.7c0.9-1.7,1.9-3.3,3.1-4.8c0,1.1,0,2.2-0.1,3.3c2.7-3.9,5.1-10.3,6.7-17s2.2-13.6,3.1-18.6
	c-1,12.7-3.9,25.1-8.5,36.9c-5,12.7-12.6,24.2-22.1,34c-10,10.1-22.1,17.9-35.6,22.6c-13.4,4.7-27.7,6-41.7,4
	c-30.3-3.7-57.4-20.8-73.8-46.5c-2.1-3.7-3.7-7.7-4.9-11.8c-1.6-5-2.6-10.2-3.3-15.4c-3.1-16.8-2.1-34.1,2.8-50.5
	c5.9-17.4,16.9-32.6,31.6-43.6C51.3,9.2,69.2,2.2,88,0.1c3.9-0.5,8.5,0.3,9.7,1.3c0.6,0.5,0.4,1.1-1.1,1.6c-2.9,0.8-5.8,1.4-8.8,1.8
	c-14.9,2.8-29.1,8.6-41.7,17c0.4-1,2.2-2.3,4.3-3.6c2-1.1,3.9-2.4,5.7-3.7c-4.9,2.1-9.6,4.6-14.1,7.6c-4.4,3-8.4,6.4-12.1,10.2
	c5.2-5.4,11-10.1,17.3-14.2c-8.2,5.2-15.6,11.6-21.9,19c-6.6,7.7-11.8,16.5-15.4,26c-1.4,3.4-3.4,6.4-5,10c-2,4.1-2.8,8.7-2.4,13.3
	C5,73.2,10.2,60.7,17.8,49.7c7.6-11,17.2-20.5,28.3-27.9c0,0-0.1,0.1-0.1,0.1c9.4-6.4,20-11,31.1-13.5c-3.4,1-6.8,2.2-9.9,3
	C83,6.8,99.6,6.1,115.7,9.2C104.2,8,92.6,8.6,81.3,11.1c-11.5,2.5-22.5,7.1-32.3,13.5C39.1,31,30.5,39.4,23.8,49.1
	c-6.5,9.5-11,20.3-13.2,31.6c2.3-6,4.4-12.9,7.4-19.3S24.7,49,29,45.5c-12.8,16.2-19.8,36.3-19.7,57l-0.5-4.6
	c-0.8,6.7-0.4,13.4,1.1,20c1.5,6.6,3.5,13,6.2,19.1c0.5,1.1,0.9,2.2,1.4,3.2l-1.4-3.2c-4.5-11-6.8-22.7-6.8-34.5
	c0.6,5.3,1.2,10.8,2.4,17.4c0-3.7-0.6-8.9-0.5-14c-0.4-6.7,0-13.5,1.2-20.1c-1.5,9.8-1,19.9,1.7,29.5c-1.7-13.6-0.7-28,4-40.9
	c-2.1,7.1-3.3,14.5-3.5,22c-1,12.7,1,25.4,5.8,37.2l-0.6-1.3c0.4,0.9,0.8,1.8,1.2,2.7c2,4.7,4.4,9.1,7.3,13.3
	c2.6,3.6,5.8,6.9,9.3,9.7l1.6,1.6c-1.2-0.8-2-1-0.2,1.1c4.1,4.6,8.9,8.5,14.2,11.5c5.5,3.3,11.4,6,17.5,8.9c4.2,1.7,8.6,2.8,13,3.2
	c0.9,0.4,1.9,0.5,2.8,0.2c1.1,0.1,2.2,0.1,3.4,0.2c2.7,0.3,5.5,0.3,8.2,0.1c-2.7,0-5.4,0-8.2-0.1l-3.1-0.3c1-0.3,2-0.5,3-0.4
	c-9.5-1.1-18.7-3.7-27.2-7.9c-8.7-4.2-16.7-9.8-23.6-16.6c1,0.6,2.4,1.5,3.1,1.8c-1.6-1.1-3.1-2.2-4.6-3.4
	c-4.4-4.5-8.3-9.5-11.7-14.8c1,1.4,2.2,2.7,3.5,3.8c-5-7.4-8.8-15.5-11.3-24.1c-2.5-8.6-3.7-17.6-3.5-26.5
	c1.3-16.7,7.5-32.6,17.9-45.7c-6.4,6.8-11.3,14.9-14.4,23.7c3.7-12.4,10.3-23.6,19.2-32.9c8.9-9.3,20-16.2,32.2-20.1
	c-3.9,2.8-9,6.3-10.5,9.2c0.5,0.5,7.5-2.6,3.8-0.2c-6.7,4.7-12.1,8.9-16,13s-6.4,8-6.4,11.8c0.1,0.8,3.7-1.4,7-2.8s6.1-2.1,4.6-0.1
	c-4.3,4.9-8,10.4-11,16.2c-1.3,2-2.4,4.1-3.3,6.3c-0.2,0.5-0.2,1-0.1,1.5c-2.4,6.7-3.9,13.6-4.5,20.6c-0.2,1.7-0.3,3.3-0.3,5
	c-0.2,0.8-0.5,1.6-0.9,2.3c0.4,1.1,0.7,2.1,1,3.1c0.2,4.4,1,8.8,2.2,13.1c0.3,2.5,0.8,5,1.5,7.4c0.2-0.2,0.5-0.7,0.9-0.4
	c2.2,5.1,5,10,8.4,14.4c1.1,1.9,2,3.8,2.8,5.8c3.1,1.3,6.8,4.6,11.3,7.7c4.4,3.2,9.2,5.8,14.2,7.7v-0.1c4.6,1.8,9.4,3.1,14.2,3.9
	c0.8,0.4,1.5,0.7,2.2,1.2c1.3-0.3,2.6-0.2,3.2-0.4c4,0.6,7.4,1.1,10.9,1.3c0.9-0.7,1.9-1.2,3-1.5c2.5-0.3,5.1-0.8,7.5-1.5
	c2.9-0.6,5.7-1.5,8.5-2.4c9.5-3.3,18.3-8.6,25.7-15.5c0.4,0,0.8,0.2,1.2,0.4c0.7-1.5,2.5-2.9,3.1-4.2c-0.1,0.3,0,0.5,0.2,0.6
	c0.8-1.5,1.8-2.9,3-4.1c1.2-1.1,2.2-2.3,3.2-3.6c0.4-0.9,0.7-1.8,0.9-2.7c0.3-0.4,0.5-0.8,0.8-1.2c3.9-3.4,5.2-8.3,6.8-13.5
	c2-5.2,3.3-10.5,4.1-16C173.1,99.4,174.3,97.7,174.9,94.5"/>
<path class="st1" d="M63.9,159.2c3.9,2.8,8.1,5.2,12.6,7.1C71.6,164.7,67,163.2,63.9,159.2"/>
<path class="st1" d="M55.3,50.8c2-0.6,3.9-1.4,5.7-2.3C51.6,55,44.3,64,39.6,74.5h-0.1c2-4.8,4.7-9.2,8-13.2
	C50.7,57.2,54,53.7,55.3,50.8"/>
<path class="st1" d="M53.8,151.1c0.2,0.1,0.5,0.1,0.7,0.2l0,0C54.2,151.3,54,151.2,53.8,151.1"/>
<path class="st1" d="M68.2,24.3l1.3-0.5c-3.2,1.4-6.4,3-9.4,4.8C62.6,26.9,65.3,25.5,68.2,24.3"/>
<path class="st1" d="M105.5,19.9c7.2,0.5,14.2,1.9,21,4.3c8.3,3.3,15.8,8.4,22.1,14.9C136.5,28.6,121.5,21.9,105.5,19.9"/>
<path class="st1" d="M74.6,40.2c2.3-0.5,4.7-0.9,7.1-1.1c-2.3,0.5-4.5,1.2-6.7,2C75.3,40.7,74.8,40.4,74.6,40.2"/>
<path class="st1" d="M43.8,40.7l1.6-1.4c-1.2,1.4-2.4,2.8-3.4,4.3C42.3,43,43.2,41.7,43.8,40.7"/>
<path class="st1" d="M99.5,37.8c-1.7-0.1-3.4-0.2-5.1-0.2c1-0.2,2-0.5,3-0.9C98,37.2,98.7,37.5,99.5,37.8"/>
<path class="st1" d="M125,43.6c2,1,4,2.1,5.9,3.4c-2.4-1.3-4.8-2.5-7.3-3.6C124.3,43.5,124.8,43.5,125,43.6"/>
</svg>
