<?xml version="1.0" encoding="utf-8"?>
<!-- Generator: Adobe Illustrator 25.2.0, SVG Export Plug-In . SVG Version: 6.00 Build 0)  -->
<svg version="1.1" id="Layer_1" xmlns="http://www.w3.org/2000/svg" xmlns:xlink="http://www.w3.org/1999/xlink" x="0px" y="0px"
	 viewBox="0 0 513.9 351.1" style="enable-background:new 0 0 513.9 351.1;" xml:space="preserve">
<style type="text/css">
	.st0{fill:#34A853;}
	.st1{fill:#4285F4;}
	.st2{fill:#DF382B;}
	.st3{fill:#FABB05;}
	.st4{fill:#009540;}
	.st5{fill:#CDD0D5;}
	.st6{fill:#9FC1F9;}
	.st7{fill:#959CA5;}
</style>
<rect x="181" y="133.8" class="st0" width="17.1" height="37.6"/>
<rect x="260.5" y="81.2" class="st1" width="18.3" height="90.2"/>
<rect x="233.4" y="117.3" class="st2" width="17.5" height="54.2"/>
<rect x="207.2" y="151.9" class="st3" width="17.2" height="19.4"/>
<path class="st4" d="M478.1,192.9l7.1,7.1l-56,56.2l-20.1,20.1l-22.7-22.7l0,0l0,0l-49.1,49.1c2.8,5.8,6.5,11.5,11.3,16.9l37.8-37.8
	l22.7,22.7l41.3-41.3c0,0,0,0,0-0.1l48.9-49l6.9,6.9l7.7-35.7L478.1,192.9z"/>
<path class="st1" d="M382,340.2c-12.6-7.1-22.6-16.8-29.9-29.4c-7.4-12.5-11.1-26.7-11.1-42.5c0-15.7,3.7-29.7,11.1-42.2
	c7.4-12.5,17.3-22.3,29.9-29.4c12.6-7.1,26.4-10.6,41.4-10.6c15.2,0,29,3.5,41.6,10.6c12.5,7.1,22.4,16.8,29.7,29.4
	c7.3,12.5,10.9,26.6,10.9,42.2c0,15.8-3.6,30-10.9,42.5c-7.3,12.5-17.2,22.3-29.8,29.4c-12.6,7.1-26.4,10.6-41.4,10.6
	C408.4,350.8,394.6,347.2,382,340.2z M449,315.4c7.4-4.4,13.1-10.6,17.3-18.8c4.1-8.1,6.2-17.6,6.2-28.3c0-10.7-2.1-20.1-6.2-28.2
	c-4.1-8.1-9.9-14.2-17.3-18.5c-7.4-4.3-15.9-6.4-25.6-6.4c-9.7,0-18.2,2.1-25.7,6.4c-7.4,4.3-13.2,10.5-17.4,18.5
	c-4.1,8.1-6.2,17.5-6.2,28.2c0,10.7,2.1,20.2,6.2,28.3c4.1,8.1,9.9,14.4,17.4,18.8c7.4,4.4,16,6.6,25.7,6.6
	C433.1,322,441.6,319.8,449,315.4z"/>
<g>
	
		<rect x="105.2" y="183.2" transform="matrix(0.7965 -0.6046 0.6046 0.7965 -95.7435 118.4211)" class="st5" width="45.8" height="36.6"/>
	<path class="st6" d="M237.9,21.6c14.8,0,29.4,3.4,42.7,9.8c13.8,6.7,25.8,16.5,35,28.7c32.5,42.9,24.1,104-18.7,136.5
		c-16.9,12.9-37.6,19.9-58.8,19.8c-14.8,0-29.4-3.4-42.7-9.8c-48.4-23.5-68.5-81.9-45-130.3C166.6,42.9,200.6,21.6,237.9,21.6
		 M237.9,0C172.2,0.1,118.9,53.4,119,119.1S172.4,238.1,238.1,238c65.7-0.1,118.9-53.4,118.9-119.1c0-26-8.5-51.2-24.3-71.9
		C310.3,17.3,275.1-0.1,237.9,0L237.9,0z"/>
	<path class="st7" d="M4.7,296.1L4.7,296.1C-3,286-1,271.6,9,264l80.2-60.9c10.1-7.6,24.4-5.7,32.1,4.4l0,0
		c7.6,10.1,5.7,24.4-4.4,32.1l-80.2,60.9C26.6,308.1,12.3,306.1,4.7,296.1z"/>
</g>
<path class="st1" d="M265.5,212.8v40h54.8v25.4h-54.8v42.3h61.7v26h-94.4V186.7h94.4v26H265.5z"/>
<path class="st1" d="M124.2,345.3c-9-3.8-16-9.4-21.2-16.6c-5.2-7.2-7.9-15.7-8-25.6h34.4c0.5,6.6,2.8,11.8,7,15.7
	c4.2,3.8,10,5.8,17.3,5.8c7.5,0,13.4-1.8,17.7-5.4c4.3-3.6,6.4-8.3,6.4-14.2c0-4.8-1.5-8.7-4.4-11.7c-2.9-3.1-6.5-5.5-10.9-7.3
	c-4.4-1.8-10.4-3.7-18-5.9c-10.4-3.1-18.9-6.1-25.4-9.1s-12.1-7.5-16.8-13.6c-4.7-6.1-7-14.2-7-24.3c0-9.5,2.4-17.8,7.1-24.9
	c4.7-7.1,11.4-12.5,20-16.2c8.6-3.8,18.4-5.6,29.4-5.6c16.5,0,30,4,40.3,12.1s16,19.3,17.1,33.7h-35.3c-0.3-5.5-2.6-10.1-7-13.7
	c-4.4-3.6-10.1-5.4-17.3-5.4c-6.3,0-11.3,1.6-15,4.8c-3.8,3.2-5.6,7.9-5.6,14c0,4.3,1.4,7.9,4.2,10.7c2.8,2.8,6.3,5.1,10.6,6.9
	c4.2,1.8,10.1,3.8,17.8,6.1c10.4,3.1,18.9,6.1,25.5,9.2c6.6,3.1,12.2,7.7,17,13.8c4.7,6.1,7.1,14.2,7.1,24.2
	c0,8.6-2.2,16.6-6.7,23.9c-4.4,7.4-10.9,13.2-19.5,17.6c-8.6,4.4-18.7,6.6-30.5,6.6C143.2,351.1,133.2,349.2,124.2,345.3z"/>
</svg>
