<svg xmlns="http://www.w3.org/2000/svg" viewBox="0 0 287.2 335.5" xmlns:v="https://vecta.io/nano"><path d="M143.6 27h108v243h-108z" fill="#fff"/><path d="M35.6 36h108v243h-108z" fill="#ededed"/><path d="M143.6 263.3l-72.9-21.5-4.8-55.4h36.6l2.4 28.7 38.7 9.8v-57.6l-80.1-.3h0-.1l-2.7-34.6 82.9-34.6v-2.4H57.5l-4.4-35.5h90.5V0H0l26.1 296.5 117.5 39z" fill="#255da8"/><path d="M184.9 213.5l2.8-46.1-44.1-.1V225l.4.1zM149.1 95.4h-5.5v2.2l.7-.2zM143.6 0v59.9h90.5l-3.6 35.5-86.3 36.9-.2.1h83.5l-9.6 109.8-73.6 21.5-.7-.3v72.1l117.5-39L287.2 0z" fill="#479cd5"/></svg>