<svg xmlns="http://www.w3.org/2000/svg" viewBox="0 0 288 336" xmlns:v="https://vecta.io/nano"><path d="M144 36h108v243H144z" fill="#fff"/><path d="M36 45h108v243H36z" fill="#ededed"/><path d="M188.4 169.3H144v57.5l39.9-10.8zM144 0v60.2h90.4l-3.2 35.7H144V133h84.1l-10.2 111.3-73.5 20.2v.2h-.4v71.2l117.8-39.1L288 0z" fill="#f96f24"/><path d="M96.4 133H144V95.9H93.3zM144 264.7h-.4l-74-20.4-4.5-56.9h35.8l2.6 28.6 40.1 10.9.4-.1v-57.5H63.2L53.6 60.2H144V0H0l26.2 296.8L143.6 336l.4-.1z" fill="#e44e2f"/></svg>