<?xml version="1.0" encoding="utf-8"?>
<!-- Generator: Adobe Illustrator 25.2.0, SVG Export Plug-In . SVG Version: 6.00 Build 0)  -->
<svg version="1.1" id="Calque_1" xmlns="http://www.w3.org/2000/svg" xmlns:xlink="http://www.w3.org/1999/xlink" x="0px" y="0px"
	 viewBox="0 0 63 63" style="enable-background:new 0 0 63 63;" xml:space="preserve">
<style type="text/css">
	.st0{fill:#FFE72D;}
	.st1{fill:#E84338;}
	.st2{fill:#C8B100;}
	.st3{fill:#E94D5C;}
	.st4{fill:#FFFFFF;}
	.st5{fill:#235CA8;}
	.st6{fill:#C7B503;}
</style>
<g>
	<g>
		<path class="st0" d="M0,31.5c0,6.2,1.8,11.9,4.9,16.8h53.3c3.1-4.9,4.9-10.6,4.9-16.8c0-6.2-1.8-11.9-4.9-16.8H4.9
			C1.8,19.6,0,25.3,0,31.5z"/>
		<path class="st1" d="M58.1,14.7C52.6,5.9,42.7,0,31.5,0S10.4,5.9,4.9,14.7H58.1z"/>
		<path class="st1" d="M4.9,48.3C10.4,57.1,20.3,63,31.5,63s21.1-5.9,26.6-14.7H4.9z"/>
		<rect x="7.6" y="28" class="st2" width="3.4" height="1.9"/>
		<rect x="7.6" y="41.9" class="st2" width="3.4" height="1.7"/>
		<path class="st3" d="M7.3,38.9c-0.3,0.2-0.6,0.4-0.5,0.5c0,0.1,0.1,0.2,0.3,0.3c0.2,0.2,0.4,0.5,0.3,0.6c0.2-0.2,0.3-0.4,0.3-0.7
			C7.6,39.3,7.5,39.1,7.3,38.9"/>
		<rect x="8.1" y="29.9" class="st4" width="2.5" height="12"/>
		<path class="st1" d="M13,34.4c-0.5-0.2-1.4-0.4-2.5-0.4c-0.4,0-0.8,0-1.2,0.1c-1.5,0.2-2.6,0.8-2.5,1.3l0,0l-0.6-1.3
			c-0.1-0.5,1.1-1.2,2.8-1.5c0.5-0.1,1-0.1,1.4-0.1c1,0,1.9,0.1,2.5,0.3L13,34.4"/>
		<path class="st1" d="M8,35.9c-0.7,0-1.1-0.2-1.2-0.5c0-0.2,0.2-0.5,0.6-0.7c0.2,0,0.4,0,0.6,0L8,35.9"/>
		<path class="st1" d="M10.5,35c0.4,0.1,0.7,0.2,0.9,0.3l0,0c0.1,0.2-0.3,0.5-0.9,0.9L10.5,35"/>
		<path class="st1" d="M6.5,38.2c-0.1-0.2,0.6-0.6,1.5-0.9c0.4-0.2,0.8-0.3,1.2-0.5c1.3-0.6,2.3-1.2,2.1-1.5l0,0l0.2,1.2
			c0.1,0.2-0.8,0.9-2,1.4c-0.4,0.2-1.2,0.5-1.6,0.6c-0.7,0.2-1.4,0.7-1.3,0.9L6.5,38.2"/>
		<rect x="30.1" y="28" class="st2" width="3.4" height="1.9"/>
		<rect x="30" y="41.9" class="st2" width="3.4" height="1.7"/>
		<path class="st3" d="M33.8,38.9c0.3,0.2,0.6,0.4,0.5,0.5c0,0.1-0.1,0.2-0.3,0.3c-0.2,0.2-0.4,0.5-0.3,0.6
			c-0.2-0.2-0.3-0.4-0.3-0.7C33.4,39.3,33.5,39.1,33.8,38.9"/>
		<rect x="30.6" y="29.9" class="st4" width="2.5" height="12"/>
		<path class="st1" d="M28,34.4c0.5-0.2,1.4-0.4,2.5-0.4c0.4,0,0.8,0,1.2,0.1c1.5,0.2,2.6,0.8,2.5,1.3l0,0l0.6-1.3
			c0.1-0.5-1.1-1.2-2.8-1.5c-0.5-0.1-1-0.1-1.4-0.1c-1,0-1.9,0.1-2.5,0.3L28,34.4"/>
		<path class="st1" d="M33,35.9c0.7,0,1.1-0.2,1.2-0.5c0-0.2-0.2-0.5-0.6-0.7c-0.2,0-0.4,0-0.6,0L33,35.9"/>
		<path class="st1" d="M30.5,35c-0.4,0.1-0.7,0.2-0.9,0.3l0,0c-0.1,0.2,0.3,0.5,0.9,0.9L30.5,35"/>
		<path class="st1" d="M34.5,38.2c0.1-0.2-0.6-0.6-1.5-0.9c-0.4-0.2-0.8-0.3-1.2-0.5c-1.3-0.6-2.3-1.2-2.1-1.5l0,0l-0.2,1.2
			c-0.1,0.2,0.8,0.9,2,1.4c0.4,0.2,1.2,0.5,1.6,0.6c0.7,0.2,1.4,0.7,1.3,0.9L34.5,38.2"/>
		<path class="st1" d="M20.4,21.3c2,0,6.1,0.5,7.6,1.9c-1.6,3.8-4.1,2.2-7.5,2.2c-3.4,0-6,1.6-7.5-2.2
			C14.4,21.8,18.4,21.3,20.4,21.3C21.4,21.3,19.4,21.3,20.4,21.3z"/>
		<path class="st2" d="M25.7,25.5c-1.3-0.7-3.1-0.9-5.2-0.9c-2,0-3.8,0.2-5.2,0.9l0.5,1.8c1.2,0.4,2.8,0.6,4.7,0.6
			c1.8,0,3.5-0.2,4.7-0.6L25.7,25.5z"/>
		<path class="st2" d="M27.4,21c-0.4-0.3-1.2-0.6-2-0.6c-0.3,0-0.6,0-0.9,0.1c0,0-0.6-0.9-2.1-0.9c-0.5,0-1,0.1-1.4,0.3l0-0.1
			c-0.1-0.2-0.3-0.4-0.5-0.4c-0.3,0-0.5,0.2-0.6,0.4l0,0.1c-0.4-0.2-0.8-0.3-1.4-0.3c-1.4,0-2.1,0.9-2.1,0.9
			c-0.3-0.1-0.6-0.1-0.9-0.1c-4.8,0-2.4,3.3-2.4,3.3l0.4-0.6c-1.1-1.5-0.1-2.4,2-2.4c0.3,0,0.5,0,0.8,0.1c-0.7,1.1,0.6,2,0.6,2
			l0.3-0.5c-0.8-0.5-0.8-2.3,1.3-2.3c0.5,0,1,0.1,1.3,0.4c0,0.1-0.1,1.5-0.2,1.8l0.8,0.8l0.8-0.8c-0.1-0.3-0.2-1.7-0.2-1.8
			c0.3-0.2,0.8-0.4,1.3-0.4c2.2,0,2.2,1.8,1.3,2.3l0.3,0.5c0,0,1.1-0.9,0.6-2c0.2,0,0.5-0.1,0.8-0.1c2.5,0,2.7,1.9,2,2.4l0.4,0.6
			C27.8,23.7,28.8,22.3,27.4,21z"/>
		<path class="st5" d="M19.8,19c0-0.3,0.3-0.6,0.7-0.6c0.4,0,0.7,0.3,0.7,0.6c0,0.3-0.3,0.6-0.7,0.6C20.1,19.6,19.8,19.3,19.8,19"/>
		<polygon class="st2" points="20.3,17.2 20.3,17.5 20,17.5 20,17.9 20.3,17.9 20.3,18.4 20.3,18.9 19.9,18.9 19.8,19 19.9,19.2 
			19.9,19.2 21.1,19.2 21.1,19.2 21.2,19 21.1,18.9 20.7,18.9 20.7,18.4 20.7,17.9 21,17.9 21,17.5 20.7,17.5 20.7,17.2 		"/>
		<path class="st1" d="M20.5,27.6c-1.7,0-3.2-0.2-4.3-0.5c1.1-0.3,2.7-0.5,4.3-0.5c1.7,0,3.2,0.2,4.3,0.5
			C23.7,27.4,22.2,27.6,20.5,27.6"/>
		<path class="st4" d="M20.6,45.8c-2,0-3.9-0.5-5.6-1.3c-1.2-0.6-2-1.8-2-3.2v-5h15.1v5c0,1.4-0.8,2.6-2,3.2
			C24.5,45.3,22.5,45.8,20.6,45.8"/>
		<rect x="20.5" y="27.9" class="st4" width="7.6" height="8.4"/>
		<path class="st1" d="M20.5,41.3c0,2-1.7,3.6-3.8,3.6c-2.1,0-3.8-1.6-3.8-3.6v-5h7.6V41.3"/>
		<path class="st2" d="M14.6,44.3c0.2,0.1,0.6,0.3,0.9,0.4l0-8.6h-0.9L14.6,44.3L14.6,44.3z"/>
		<path class="st2" d="M12.9,41.3c0,1.1,0.4,1.8,0.9,2.4v-7.5H13L12.9,41.3z"/>
		<path class="st6" d="M16.3,44.9c0.3,0,0.6,0,0.9,0v-8.8h-0.9V44.9z"/>
		<path class="st2" d="M18,44.7c0.3-0.1,0.7-0.3,0.9-0.4v-8.2H18L18,44.7z"/>
		<rect x="13" y="27.9" class="st1" width="7.6" height="8.4"/>
		<path class="st2" d="M19.7,43.5c0.4-0.3,0.7-1.1,0.8-1.9l0-5.5h-0.9L19.7,43.5z"/>
		<path class="st1" d="M28.1,36.3v5c0,2-1.7,3.6-3.8,3.6c-2.1,0-3.8-1.6-3.8-3.6v-5H28.1"/>
		<path class="st1" d="M25.4,29.4c0.3,0.6,0.3,2.2-0.7,1.9c0.2,0.1,0.3,0.9,0.6,1.2c0.6,0.6,1.2,0.1,1-0.6c-0.3-1.2-0.1-1.9,0.1-3
			c0,0.2,0.5,0.1,0.7-0.1c-0.1,0.3-0.2,0.7,0,0.7c-0.2,0.3-0.8,0.8-0.8,1.1c-0.1,0.7,1,2.2-0.2,2.4c-0.8,0.2-0.3,0.8,0,1.2
			c0,0-0.4,1.3-0.2,1.3C25,35.8,25.3,35,25.3,35c0.4-1.2-0.7-1.3-0.6-1.5c-1.1-0.1,0.1,1-0.9,1c-0.2,0-0.6,0.2-0.6,0.2
			c-1.2-0.1-0.5-1.2-0.1-1c0.3,0.2,0.6,0.7,0.7-0.1c0,0-0.5-0.9,0.8-0.8c-0.5,0-0.9-0.5-1-0.9c-0.2,0.1-0.6,0.6-1.7,0.7
			c0,0-0.4-1.1,0-1c0.4,0.2,0.7,0.2,1-0.2c-0.3-0.3-1.5-0.8-1.3-1.5c0.1-0.2,0.6-0.5,0.6-0.5c-0.1,0.5,0.2,1,0.9,1.1
			c0.9,0.1,0.5-0.2,0.6-0.5c0.1-0.2,0.7,0.1,0.6-0.4c0-0.1-0.8-0.2-0.5-0.5C24.2,28.5,24.9,28.8,25.4,29.4"/>
		<polyline class="st3" points="20.6,44.7 20.3,44.2 20.6,43.6 20.8,44.2 20.6,44.7 		"/>
		<polygon class="st2" points="15.2,29.7 15.2,30.3 15.4,30.3 15.4,30.6 14.9,30.6 14.9,31.8 15.2,31.8 15.2,34 14.6,34 14.6,35.1 
			18.9,35.1 18.9,34 18.3,34 18.3,31.8 18.6,31.8 18.6,30.6 18.1,30.6 18.1,30.3 18.3,30.3 18.3,29.7 17.3,29.7 17.3,30.3 
			17.5,30.3 17.5,30.6 17,30.6 17,29.4 17.3,29.4 17.3,28.9 16.2,28.9 16.2,29.4 16.5,29.4 16.5,30.6 16,30.6 16,30.3 16.2,30.3 
			16.2,29.7 		"/>
		<path class="st2" d="M24.5,37.8h1.8l-1.8,1.8V37.8z M26.7,42.1L24.6,40l2.1-2.1V42.1z M24.5,43.4v-3l2,2L24.5,43.4z M22.1,42.5
			l2-2v3L22.1,42.5z M22,37.9l2.1,2.1L22,42.1V37.9z M24.1,37.8l0,1.8l-1.8-1.8H24.1z M27,42.6v-5.2h-5.4v5.2l2.5,1.2v0h0h0.4h0v0
			L27,42.6z"/>
		<path class="st1" d="M18.1,36.3c0-1.5,1.1-2.8,2.5-2.8s2.5,1.2,2.5,2.8c0,1.5-1.1,2.8-2.5,2.8S18.1,37.8,18.1,36.3"/>
		<path class="st5" d="M18.8,36.3c0-1.1,0.8-2,1.7-2c1,0,1.7,0.9,1.7,2c0,1.1-0.8,2-1.7,2C19.6,38.3,18.8,37.4,18.8,36.3"/>
		<polyline class="st2" points="19.7,34.9 19.3,36 19.6,36.1 19.5,36.5 20,36.5 19.9,36.1 20.2,36 19.7,34.9 		"/>
		<polyline class="st2" points="21.3,34.9 20.9,36 21.2,36.1 21.1,36.5 21.6,36.5 21.5,36.1 21.8,36 21.3,34.9 		"/>
		<polyline class="st2" points="20.5,36.2 20.1,37.4 20.4,37.5 20.3,37.9 20.8,37.9 20.7,37.5 21,37.4 20.5,36.2 		"/>
	</g>
</g>
</svg>
