<?xml version="1.0" encoding="utf-8"?>
<!-- Generator: Adobe Illustrator 25.2.0, SVG Export Plug-In . SVG Version: 6.00 Build 0)  -->
<svg version="1.1" id="Calque_1" xmlns="http://www.w3.org/2000/svg" xmlns:xlink="http://www.w3.org/1999/xlink" x="0px" y="0px"
	 viewBox="0 0 63 63" style="enable-background:new 0 0 63 63;" xml:space="preserve">
<style type="text/css">
	.st0{fill:#020304;}
	.st1{fill:#FFE72D;}
	.st2{fill:#E84338;}
</style>
<g>
	<g>
		<path class="st0" d="M31.5,0C17.8,0,6.1,8.8,1.8,21h59.4C56.9,8.8,45.2,0,31.5,0z"/>
		<path class="st1" d="M31.5,63c13.7,0,25.4-8.8,29.7-21H1.8C6.1,54.2,17.8,63,31.5,63z"/>
		<path class="st2" d="M1.8,21C0.6,24.3,0,27.8,0,31.5c0,3.7,0.6,7.2,1.8,10.5h59.4c1.2-3.3,1.8-6.8,1.8-10.5
			c0-3.7-0.6-7.2-1.8-10.5H1.8z"/>
	</g>
</g>
</svg>
