<?xml version="1.0" encoding="utf-8"?>
<!-- Generator: Adobe Illustrator 25.2.0, SVG Export Plug-In . SVG Version: 6.00 Build 0)  -->
<svg version="1.1" id="Calque_1" xmlns:v="https://vecta.io/nano"
	 xmlns="http://www.w3.org/2000/svg" xmlns:xlink="http://www.w3.org/1999/xlink" x="0px" y="0px" viewBox="0 0 593.1 593"
	 style="enable-background:new 0 0 593.1 593;" xml:space="preserve">
<style type="text/css">
	.st0{fill:#1D1D1B;}
</style>
<g>
	<polygon class="st0" points="302.5,245.7 302.5,245.7 302.5,245.7 	"/>
	<path class="st0" d="M165.7,138.8c2.2,2.4,8.5-3.7,12.6-4.7C172.3,131.9,169.2,136.1,165.7,138.8z"/>
	<path class="st0" d="M195.1,113.4c-17.1,16,6.7,15,4.8,7.4C192.4,119.4,195.8,117.4,195.1,113.4z"/>
	<path class="st0" d="M146.3,220.9l-10.8-1.9C136.7,224.3,136.7,224.3,146.3,220.9z"/>
	<path class="st0" d="M196.4,288.5c2.2-0.8,5.4-0.1,5.5-4.5C196.4,283,196.3,283,196.4,288.5z"/>
	<path class="st0" d="M167.7,460.9l-10.3-7.3C159.8,460.1,161.1,460.9,167.7,460.9z"/>
	<path class="st0" d="M474.5,336.7c-4.2,7.6-6.5,19.8-3.9,28.9c11.5,6.4,19.8-35.3,16.4-42.4C483.4,329.3,480.8,335.2,474.5,336.7z"
		/>
	<path class="st0" d="M121.7,216.3c17.9,5.7-4.1-5.7-11.2-7.7C109.2,212.9,118.6,214,121.7,216.3z"/>
	<path class="st0" d="M318.7,106.7c6.1,0.4,8.3-2.2,9-12C320.4,97.4,318.1,99.6,318.7,106.7z"/>
	<path class="st0" d="M198.7,19.8l6.4-1.7C202.9,17.7,200.8,19.2,198.7,19.8z"/>
	<path class="st0" d="M335.2,90.7c8.6-1.9-6-9.8-5.4-3c3.8,18.6,10.5-0.5,2.1,23C352.2,111.1,346.3,100.8,335.2,90.7z"/>
	<path class="st0" d="M415.7,78c-4-4-8.2-7.9-12.4-11.5C391.4,78.3,406.2,76.2,415.7,78z"/>
	<path class="st0" d="M181.6,502.6L181.6,502.6c13.6-15.4-5.2-4-3.7,7.4c5.2,5.4,10.6,10.5,16.1,15.2
		C198.2,520,195.3,511.5,181.6,502.6z"/>
	<path class="st0" d="M99.9,240.9l-0.7,4.2c0.1-0.4,0.3-0.7,0.5-1.1C100,242.8,100,241.8,99.9,240.9z"/>
	<path class="st0" d="M97.6,256.8l2.5,2.7c-0.2-3.5-1.3-6.4-1.6-9.3L97.6,256.8z"/>
	<path class="st0" d="M140.9,398.9c11.8,3.9,24.4,7.4,37.5,10.4c5.7-1.9,8.1-7.2,0.3-14.6c13.8,4.8,12.7,3.1,17.7-8.3
		c16.7-37.6,34.2-18.9,34.8-60.8c21.7-20.3,2.9-35.6-17.7-33.7c1-5.2-8.3-8.7-10.7-4.7c-8,6.1-13.9-1.5-4.8-9
		c-4.3-13-11.7-14.3-22.1-16.9c-7.3-3.7-11-14.6-19.9-11.8c-6.9,3.8-19.8-11.7-18.9,4c-3.2-13-11.8-5.8-18,4.6
		c0.5-10.1-23.1-3.3-9.9,0.7c5.3-7.1,4.2-2.6,9.9-0.6c0,0,0,0.1-0.1,0.1c2.7,23.1-11.2,14.3-9.4,36.2
		C118.5,351.8,151.3,313.3,140.9,398.9z"/>
	<path class="st0" d="M413.4,78.8l2.2,2.2l3.5,0.2C417.9,80,415.8,79.3,413.4,78.8z"/>
	<path class="st0" d="M115.4,184.9l0.3-0.8c5.7-6.2,18.4-12.8,19.4-20.3c-1.6-6.2-0.5-8,5.2-8.4c3.8-1.8,4.2-7.4,9.2-7.1
		c6-2.2,5.9-10.3,12.7-11.1c12.5-2.9,8.3-9.3,12-15.3c-14.8,3.6-16.2,4.6-2.1-3.6c11.9,2.3,43.7-15.5,16-11.7
		c13.5-7.2-6,5.8-10.4-16.7c-6.7,10.8-9.4,8.6-12.3,4.4c-21.9,25.3-39.7,57-51.9,92.9c0.4-1,1.2-2,2.1-3
		C115.5,184.4,115.4,184.6,115.4,184.9z"/>
	<path class="st0" d="M161.5,429.3c3.6-2,3.5-5.6,2.5-9.1c-8.5-2-16.7-4.1-24.7-6.5c0.2,3.2,1.6,1.9,4.2,5c-1,4.5,2.2,16.8-4.1,13.1
		c1.6,2.2,3.9,3.9,4.2,6c1.4,12.3,9.8,19.5,13.3,12.3C170.6,432.5,154.3,436.9,161.5,429.3z"/>
	<path class="st0" d="M101.2,246l0.7-5C101.2,242.8,101.1,244.4,101.2,246z"/>
	<path class="st0" d="M106,187.9c-4.3-0.6-8.3-0.8-11.8-0.6c-0.9,3-1.7,5.9-2.5,8.9c5.7-2.5,11.5-4.9,17.6-7.3
		C108.6,188.3,107.5,187.9,106,187.9z"/>
	<path class="st0" d="M466.6,227.3L466.6,227.3c2.4,3.3,0,15.3,6,12.3c5.4-2.1,14-6,19.1-8.7c-1.7-9.6-6.6-18.3-9.5-26.6
		c-11.7-5.2-24.4-9.8-37.9-14C449.8,203.5,460.2,214.6,466.6,227.3z"/>
</g>
<path class="st0" d="M593.1,296.4C593.1,296.4,593.1,296.4,593.1,296.4c0-0.2,0-0.3,0-0.4c0-0.1,0-0.3,0-0.4c0-2.4,0-4.8-0.1-7.2
	c0-0.4,0-0.7,0-1.1c-0.1-2.1-0.1-4.3-0.3-6.4c0-0.6-0.1-1.2-0.1-1.8c-0.1-1.9-0.2-3.8-0.4-5.7c-0.1-0.8-0.1-1.6-0.2-2.4
	c-0.1-1.7-0.3-3.4-0.5-5c-0.1-1-0.2-2.1-0.4-3.1c-0.2-1.4-0.3-2.9-0.5-4.3c-0.2-1.3-0.3-2.5-0.5-3.7c-0.2-1.2-0.3-2.4-0.5-3.6
	c-0.2-1.5-0.5-2.9-0.7-4.4c-0.2-1-0.3-1.9-0.5-2.9c-0.3-1.7-0.6-3.4-1-5.1c-0.1-0.7-0.3-1.4-0.4-2.2c-0.4-1.9-0.8-3.8-1.2-5.7
	c-0.1-0.5-0.2-1-0.3-1.4c-0.5-2.2-1-4.3-1.6-6.4c-0.1-0.2-0.1-0.4-0.2-0.7C550.9,94.5,434.8,0,296.7,0c0,0,0,0-0.1,0c0,0,0,0-0.1,0
	h0c0,0,0,0,0,0c0,0,0,0,0,0c-0.3,0-0.6,0-1,0C132.4,0.6,0.2,132.9,0,296.1c0,0.1,0,0.2,0,0.3c0,0,0,0,0,0.1c0,0,0,0.1,0,0.1v0
	c0,163.8,132.8,296.5,296.5,296.5h0c161.3,0,292.5-128.7,296.5-289c0-0.2,0-0.4,0-0.6c0.1-2.3,0.1-4.6,0.1-6.9v0
	C593.1,296.5,593.1,296.5,593.1,296.4C593.1,296.5,593.1,296.5,593.1,296.4C593.1,296.5,593.1,296.5,593.1,296.4z M296,239.8
	c7.8-10.2-1.8-21.4,6.8-23.6c-7-0.7-0.3-12.6,8.5-24.4v68.4c-5.2-5.3-10-10.6-8.8-14.5C292.2,243.5,313.9,244,296,239.8z
	 M227.1,549.5c5-0.1,10.7-0.8,15.2-0.2c-6.1-13.5-12.5-5.4-19.6-2.1c-10.8-5.9-21.2-13-31-21.3c-4,4.9-14.3,6.7-27.8,2.9l0,0
	c-0.1,0-0.2,0-0.3,0c0-0.2,0.1-0.4,0.3-0.5c-2.8-3-5.4-6-8.1-9.2c8.7,1.3,13.1,1.5,21.6-0.9l3,0c-1.5-1.1-3.4-2.3-4.9-3.6
	c-0.4-1.7-2.2-3.9-4.3-5.4c-25.8-27.5-46.5-63.4-59.7-104.7c8.9,3.3,18.2,6.4,27.9,9.3c-0.1-0.7-0.1-1.6,0-2.8l1.6-12
	c-12.5-4.2-24.3-8.8-35.1-13.9c-7.1-27.8-11-57.7-11-88.8c0-14.9,0.9-29.5,2.6-43.7c-6-6.5-5.5-10-12.3-13.7
	c-2.7,18.7-4.1,37.9-4.1,57.7c0,27.7,2.8,54.5,8,79.9c-38.8-21.9-62.2-49.9-62.2-80.5c0-23.7,14-45.8,38.2-64.7
	c4.5,1,8.9,1.8,13.1,3.1c2.7,1.3,8.1-0.4,10.3,0.7c0.1-0.6,0.1-1.1,0.2-1.7c5.4,1.1,13.3-2.6,14,3.3c1.8-10.8,4-21.3,6.7-31.5
	c-7.9,3.6-15.4,7.4-22.3,11.4c-0.1,0.3-0.1,0.7-0.2,1c1.5-1.3,2.8-2,3.7-2.3c-0.5,0.5-1.8,1.8-1.4,1.5c0,0,0,0.1,0,0.1
	c0.5-0.5,1-1.1,1.5-1.7c4.9-1.2,3,9.8-1.8,15c0-4.5-0.7-8.1,0.3-13.3c-4.5,4.7-8.5,6.2-11.6,5.5c3.1-2,6.3-4,9.6-5.9
	c1.4-6.9,3-13.7,4.8-20.4c-7.6,3.4-14.8,7-21.6,10.8c1.2-10.5,9.6-22.5,29.4-23.5c11.7-28.2,20.5-48.8,31.6-65.8
	c2.8,4.5,8.3,1,7-8.8v0c12.2-4.6,7.2-13.8,10.4-22.8c0.4-5.7,8-3.4,11.8-3.8c3.5,1.4,5.6,5,7.5,7.8c15.7-18.1,33.5-33,52.8-43.8
	c2.1,2.1,1.9,5.6,0.4,9.8c-0.1,6-0.1,6-4.5,4.2c1.3,8.2,1.4,20.1,15.1,19.5c6.7-0.6,9.6-20.1,20.1-19.3c10-1,15.5-11.1,26.9-10.1
	c11.5-4.4,5-5.9-3.7-4.2c4.1-7.6,3.9-5.9,16.5-2.4c-2.3-8.1-9.2-3.6-12.5-8c10-0.6,11.3-5.6,13.3-9.5c1.2,0,2.4-0.1,3.6-0.1
	c0.1,0,0.2,0,0.3,0l-0.7,33.6c-3.9,1.3-6.3,3.6-3.3,6.3c0.9,0.5,1.9,0.8,3.1,0.9l-1.9,91c-69.8,0.3-133.7,11.9-184.1,31.1
	c1,0.9,1.6,2.3,2,4c-0.7,2.3-1.4,4.6-2.1,7c0.2,1.2,0.4,2.3,0.6,3.5l-0.5,1.9c0.3-0.1,0.6-0.3,0.9-0.4c0.3,0.9,0.6,1.7,1.1,2.4
	c1.1-1.2,2-2.6,2.9-4.1c47.3-20.3,110-32.7,179-33.1l-0.4,20.4v149.9l1.6,81.7c-41.6-0.2-80.8-4.7-115.9-12.7
	c-2.3,0.8-5.1,1.1-8,0.7c0.7,7.2-2.1,7-7.9,5.9c0.5,1.4,1.1,2.8,1.5,4.3c39.4,9.2,83.7,14.4,130.5,14.6l2,103.1
	c-12,1.6-24.9,1.2-35.9,6.4c10,6.7,48.1,7,12.1,8.4c-10.6,0.3-21,1.1-31.3,1.6c17.6,7.2,36.3,11.1,55.6,11.2l0,0.8
	c-0.5,0-0.9,0-1.4,0c-26,0-51.1-3.7-74.9-10.5c6.2,0,12.3-0.3,18.4-0.6C235.2,553.4,231.1,551.6,227.1,549.5z M166.4,532
	c0.9,0.9,1.7,1.8,2.6,2.7c-1.7-0.9-3.3-1.8-4.9-2.7C165.6,532.3,166.3,532.2,166.4,532z M163.7,529.1c0,0,0-0.1-0.1-0.1
	C163.7,529,163.7,529,163.7,529.1z M153.8,517.9c-5.6-0.9-11.3-2.1-16.9-3.3c-50.7-37-88.1-91.3-103.4-154.2
	c15.6,13.9,36.1,26.5,60.5,37.1C106.4,444.2,127.1,485.5,153.8,517.9z M33.4,232.5c1.9-8,4.2-15.9,6.8-23.7
	c2.6,4.3,4.8,8.7,6.2,13.2C41.7,225.4,37.4,228.9,33.4,232.5z M141.4,78.8c-2.6-1.7-4.5-2.8-5.9-2.9c2.6-2,5.3-4,8-5.9
	c1.1-0.4,2-1.1,2.7-1.9c4.6-3.2,9.4-6.3,14.2-9.2c1.8,0.3,3.3,0.8,4.4,1.7c-11.9,12.4-22.9,26.4-32.7,41.8
	c-11.8-2.3-16.5-5.5-17-9.2c5.2-4.8,10.5-9.4,16-13.8c-0.5,0.9-1,2-1.5,3.3L141.4,78.8z M168.9,53.9c2-1.1,4-2.2,6-3.3
	c-1.3,1.2-2.6,2.4-3.9,3.7C170.3,54.2,169.6,54.1,168.9,53.9z M328.2,170.8c-3.9,4.4-10.7,12.3-16.7,20.4l-0.2-21
	c5.7,0.1,11.4,0.3,17.1,0.6c1.1-1.3,2-2.2,2.6-2.8c61.1-8.8,31.7-5.1,49,8c7.9,1.2,15.5,2.5,23.1,4c5.8-5.1,15.2,2.7,23.2,4.5
	c4.8,1,15.7-10.2,15.2-3.1c0,0,0,0,0,0c-0.6,2.9-0.9,5.9-1.2,7.8c-11.9-3.5-24.4-6.6-37.4-9.2c-1.4,1.2-2.6,3.1-3.5,6
	c-9.8-3.8-15.8-7.1-19.6-10C363.2,173.5,346,171.7,328.2,170.8z M363.1,268.8c-0.1,1.8-0.5,2.6-0.8,2.8
	C362.7,270.7,363,269.8,363.1,268.8z M310,565c35.9-2.9,69.2-18.8,97.4-44.2c-20.3,1.3-41.2-3.3-61.5,3.8l0,0
	c-10.4-0.3-22.3-5-30.8,3.3c-1.9,1.1-3.6,1.4-4.9,1.6l0.6-94.8c65.3-1.4,125-12.7,172.5-30.8c-16.4,49.3-44,91.5-75.2,119.6
	c6.5-0.4,12.9-1.4,19.3-3.6c2.6-8.1,3.3-1.7,9.1-5c1.1-1.1,2.4-2.2,3.8-3c24.5-31.2,46.8-70.8,60.1-115
	c26.6-11.8,48.6-25.8,64.4-41.5c-9.1,57.5-41.7,108.4-87.4,145.7c-4.2,1.9-8.2,5-11.6,6.1c-6.3,0.9-12.6,1.5-18.2,5
	c-5.7,7.3-11.7,14.1-18,20.6c-36.4,19.2-77.5,31-119.6,33.2L310,565z M506,375.6c5.9-26.3,8.4-53.9,6.3-82.2
	c-2.5-32-5.5-49.9-10.3-74.2c-4.6,4.4-3.6,11.7-10.4,15.2l2.6,18.2c0,0,2.6,2.5,0.9,7.5c1.3,12.5,3.4,16.4,3.4,29.3
	c2.2,32.8-1.4,64.9-9.3,95c-45.9,21.8-108.6,35.8-178.2,37.4l0.5-79.5v-81.8c3.7,4,7.5,7.8,9.1,11.1c4.1,8.1,34.7,10.2,41.3,0.6
	c9.8,0.5,13.1,10.8,23.5,8.2c-0.7,6.5-13.1-7-11.7,7.8c-9.2,13.2,31.7,24.2,9.1,21c0.7,32.4-2.5,54.1,14.7,89.3
	c6.8,17.4,43.6-13,41.1-27.6c16.8-13.4-1.6-20.2,15-30.5c27.7-17.2-13.2-40.9,19.8-62.9c8.3-6.5,14.2-9.9,18.7-19.2v-0.1l-0.9-7.5
	c-4.6-1.1-16.5,6.4-20.7,0.7c-8.4-9-16.6-29.6-24.6-36.7c6.7-2-10.1-19.2-9-25.7c2.3,4,2.9,3.2,3.4,0.2l4,1.2
	c-1.2-2.9-2.2-5.9-2.8-8.9c0.6-2,1.1-3.8,1.5-5.5c11.8,3.2,23.1,6.7,33.8,10.5C463.3,144.7,442,108.4,415.6,81
	c-17.4-0.4-4.4,10.2-13.3,7.6c-5.7-3.9-3.6,9.6-4.7,10c-23.5-2-28.4-1.4-39.7,0c1,5.1-1.5,10.6-7.7,9.7c-1.1,5.3-10.5,6.2-17.1,10.6
	c28.9,24.8-22.2,9.5-11.8,21.2c-10.7,15,14.2,26.3,21.4,10.1c0.5-6.6,6-7.2,8.7-10.9c0.1-6,3.4-4.7,6.5-4.4c4.6,0.3,8-3.6,13.4-1
	c13.9,6.9,11.7,29,15.8,20.2c0.9-2,3.5-6.4,2.9-9c-1.3-6.7-20.3-12.9-10-20.1c1.2,4.9,5.8,0.8,6.7-2.2c1.5,5-7.3,7.3,1.6,11.8
	c9.1,2.2,7.9,19,18.6,18.3c-5.9-13.5,8.7-6.5,12.7-9.7c-6.2-7.8,11-28.5,14.5-10c3.2-7.2,18.9-15.3,9.6-1.5
	c50.1,29-60.5-3.5-18.2,28c15-1.9,20.7,0.9,17.2,16.1c-39.2-10.4-83.9-16.7-131.6-17.7l-1.4-131.2c7.6,0.7,15.1,2,22.5,3.9
	c11.4,3.8,22.5,8,33.2,12.6c6.2,3.2,12.2,6.7,18.1,10.7c0.8-0.5,1.4-1.1,1.9-1.6c4.8,2.3,9.6,4.8,14.3,7.3c-0.8,0.4-1.6,1.2-2.3,2
	c-3.8-3-7.7-5.9-11.7-8.5c-3.3,2.5-9,5.5-13.6,13.3c-12.6,5.9-11.3,3.6-9.9,17c24.9-9.9,8.4,28.7,31-4.3c-5.8-5-5.9-8.6-1.1-11.7
	c1.9-0.5,3.4-1.9,4.8-3.5l4.1,3.3c1.3-1.2,2.9-2.7,4.9-4.3c13.6,7.5,23,17.6,35.6,33.1c12.3,16,19.1,27.4,28,42.4
	c10.3,17.4,19.1,37.6,29.4,55c0.9,2.3,3.4-4,6.8-0.7c2,2,4.1,3.4,5.7,4.3c8.3,2.5,11.7-10.5,16.1-12.7c2-1,2.5,0.2,7.2,8.1
	c5.6,9.4,9.4,19.9,13.4,30.4c-12.3-9.2-26.8-17.6-43.3-25.2c0.1-0.3,0.1-0.7,0.2-1c-0.1,0.3-0.3,0.6-0.5,0.9
	c-1.4-0.7-2.9-1.3-4.3-1.9c-0.6-0.8-1.1-1.6-1.3-2.2c-5.2-1-8.3-0.2-11.8-6.2c-7.8-8.5-9.3-5.5-7.5,0.2c-0.9-0.3-1.7-0.6-2.6-1
	c1.9,5.8,3.7,11.8,5.3,17.8c9.5,4.2,18.3,8.7,26.5,13.5c0.1,0.6,0.2,1.1,0.3,1.7c0.3-0.3,0.6-0.6,0.9-0.9
	c25.4,15.2,43.4,33.2,51.7,52.8c1.6,8.1,3,16.5,4,24.9c0.3,2.2,0.5,4.3,0.7,6.4C563.3,330.3,541.2,355.5,506,375.6z"/>
</svg>
