<?xml version="1.0" encoding="utf-8"?>
<!-- Generator: Adobe Illustrator 25.2.0, SVG Export Plug-In . SVG Version: 6.00 Build 0)  -->
<svg version="1.1" id="Calque_1" xmlns="http://www.w3.org/2000/svg" xmlns:xlink="http://www.w3.org/1999/xlink" x="0px" y="0px"
	 viewBox="0 0 63 63" style="enable-background:new 0 0 63 63;" xml:space="preserve">
<style type="text/css">
	.st0{fill:#0856A4;}
	.st1{fill:#FFFFFF;}
	.st2{fill:#E84338;}
</style>
<g>
	<g>
		<path class="st0" d="M21,61.2V46.7l-10.8,8C13.3,57.5,16.9,59.8,21,61.2z"/>
		<path class="st0" d="M42,61.2c4.1-1.4,7.8-3.7,10.9-6.6l-10.9-8L42,61.2z"/>
		<path class="st0" d="M1.8,42c0.4,1,0.8,2,1.2,3l4.1-3H1.8z"/>
		<path class="st0" d="M55.9,42l4.1,3c0.5-1,0.9-2,1.2-3H55.9z"/>
		<path class="st1" d="M22.5,37.8h-9.7H0.6c0.3,1.4,0.7,2.8,1.2,4.2h5.3L3,45c0.8,1.7,1.8,3.4,2.9,4.9L16.8,42h0H21v2.2v0L8.7,53.2
			c0.5,0.5,1,1,1.5,1.4l10.8-8v14.5c1.4,0.5,2.8,0.9,4.2,1.2V43.6v-2.5v0v-3.3H22.5L22.5,37.8z"/>
		<path class="st1" d="M62.4,37.8H50.2H47h0h-7.1h0h-2.1v5.8v18.8c1.4-0.3,2.8-0.7,4.2-1.2l0-14.5l10.9,8c1.4-1.3,2.8-2.8,4-4.4
			L45.6,42h0h7.1l6.4,4.7v0c0.3-0.6,0.6-1.1,0.9-1.7l-4.1-3h5.3C61.7,40.6,62.1,39.2,62.4,37.8z"/>
		<path class="st2" d="M6,50c0.8,1.1,1.7,2.2,2.7,3.2c0,0,0,0,0,0L21,44.2v0V42h-4.2L6,50z"/>
		<path class="st2" d="M45.6,42l11.2,8.2c0.4-0.5,0.8-1.1,1.1-1.6c0.1-0.1,0.1-0.2,0.2-0.3c0.3-0.5,0.7-1.1,1-1.7L52.7,42H45.6z"/>
		<path class="st0" d="M42,1.8v14.5l10.8-8C49.7,5.5,46.1,3.2,42,1.8z"/>
		<path class="st0" d="M21,1.8c-4.1,1.4-7.8,3.7-10.9,6.6l10.9,8L21,1.8z"/>
		<path class="st0" d="M61.2,21c-0.4-1-0.8-2-1.2-3l-4.1,3H61.2z"/>
		<path class="st0" d="M7.1,21L3,18c-0.5,1-0.9,2-1.2,3H7.1z"/>
		<path class="st1" d="M40.5,25.2h9.7h12.2c-0.3-1.4-0.7-2.8-1.2-4.2h-5.3l4.1-3c-0.8-1.7-1.8-3.4-2.9-4.9L46.2,21h0H42v-2.2v0
			l12.3-9.1c-0.5-0.5-1-1-1.5-1.4l-10.8,8V1.8c-1.4-0.5-2.8-0.9-4.2-1.2v18.8v2.5v0v3.3H40.5L40.5,25.2z"/>
		<path class="st1" d="M0.6,25.2h12.2H16h0h7.1h0h2.1v-5.8V0.6c-1.4,0.3-2.8,0.7-4.2,1.2l0,14.5l-10.9-8c-1.4,1.3-2.8,2.8-4,4.4
			L17.4,21h0l-7.1,0l-6.4-4.7v0C3.6,16.9,3.3,17.4,3,18l4.1,3H1.8C1.3,22.4,0.9,23.8,0.6,25.2z"/>
		<path class="st2" d="M57,13c-0.8-1.1-1.7-2.2-2.7-3.2c0,0,0,0,0,0L42,18.8v0V21h4.2L57,13z"/>
		<path class="st2" d="M17.4,21L6.2,12.8c-0.4,0.5-0.8,1.1-1.1,1.6C5,14.5,5,14.5,4.9,14.6c-0.3,0.5-0.7,1.1-1,1.7l6.4,4.7L17.4,21z
			"/>
		<path class="st2" d="M62.4,25.2H50.2h-9.7h0h-2.6v-3.3v0v-2.5V0.6c-2-0.4-4.1-0.6-6.3-0.6s-4.3,0.2-6.3,0.6v18.8v5.8h-2.1h0H16h0
			h-3.1H0.6c-0.4,2-0.6,4.1-0.6,6.3s0.2,4.3,0.6,6.3h12.2h9.7h0h2.6v3.3v0v2.5v18.8c2,0.4,4.1,0.6,6.3,0.6s4.3-0.2,6.3-0.6V43.6
			v-5.8h2.1h0H47h0h3.1h12.2c0.4-2,0.6-4.1,0.6-6.3S62.8,27.2,62.4,25.2z"/>
	</g>
</g>
</svg>
