<?xml version="1.0" encoding="utf-8"?>
<!-- Generator: Adobe Illustrator 25.2.0, SVG Export Plug-In . SVG Version: 6.00 Build 0)  -->
<svg version="1.1" id="Calque_1" xmlns="http://www.w3.org/2000/svg" xmlns:xlink="http://www.w3.org/1999/xlink" x="0px" y="0px"
	 viewBox="0 0 62.8 63" style="enable-background:new 0 0 62.8 63;" xml:space="preserve">
<style type="text/css">
	.st0{fill:#0055A4;}
	.st1{fill:#FFFFFF;}
	.st2{fill:#EF4135;}
</style>
<g>
	<g>
		<path class="st0" d="M0,31.5c0,13.7,8.7,25.4,20.9,29.7V1.8C8.7,6.1,0,17.8,0,31.5z"/>
		<path class="st1" d="M20.9,61.2c3.3,1.2,6.8,1.8,10.5,1.8c3.7,0,7.2-0.6,10.5-1.8V1.8C38.6,0.6,35.1,0,31.4,0
			c-3.7,0-7.2,0.6-10.5,1.8V61.2z"/>
	</g>
</g>
<path class="st2" d="M41.8,1.8v59.4c12.2-4.3,20.9-16,20.9-29.7C62.8,17.8,54,6.1,41.8,1.8z"/>
</svg>
