<svg xmlns="http://www.w3.org/2000/svg" viewBox="0 0 288 333" xmlns:v="https://vecta.io/nano"><path d="M45 52.6h192.1V270H45z" fill="#fff"/><path d="M144 0v333l117.5-38.6L287.7 0z" opacity=".15"/><path d="M288 0L0 .1v.1h0l25.7 294.3L144.3 333l117.5-38.6L288 0zm-57 94.7l-86.7 36.6-.2.1H228l-9.6 109-74.1 21.1L71 240.3l-4.8-55H103l2.4 28.5 38.9 9.7 41-11.5 2.8-45.7-124.4-.3-2.7-34.4 89.2-36.9-92.9-.3-4-34.7 181.3-.2-3.6 35.2z" fill="#479cd5"/><path d="M144 94.7v2.6l6.2-2.6zM185.2 212l2.8-45.7-44-.1v57.2l.3.1zM144 0v59.6l90.7-.1-3.7 35.2-86.6 36.7-.2.1H228l-9.6 109-74.1 21.1h-.3v71.3l.3.1 117.5-38.6L288 0z" fill="#255da8"/></svg>