<?xml version="1.0" encoding="utf-8"?>
<!-- Generator: Adobe Illustrator 25.2.0, SVG Export Plug-In . SVG Version: 6.00 Build 0)  -->
<svg version="1.1" id="Calque_1" xmlns="http://www.w3.org/2000/svg" xmlns:xlink="http://www.w3.org/1999/xlink" x="0px" y="0px"
	 viewBox="0 0 593.1 593.3" style="enable-background:new 0 0 593.1 593.3;" xml:space="preserve">
<style type="text/css">
	.st0{fill:#1D1D1B;}
</style>
<path class="st0" d="M146.3,221.2l-10.8-1.9C136.7,224.6,136.7,224.6,146.3,221.2z M121.7,216.6c17.9,5.7-4.1-5.7-11.2-7.7
	C109.2,213.2,118.6,214.3,121.7,216.6z M157.4,453.9c2.4,6.5,3.7,7.3,10.3,7.3L157.4,453.9z M109.2,259.1c5.3-7.1,4.2-2.6,9.9-0.6
	C119.7,248.3,96,255.1,109.2,259.1z M196.4,288.8c2.2-0.8,5.4-0.1,5.5-4.5C196.4,283.3,196.3,283.3,196.4,288.8z M195.1,113.7
	c-17.1,16,6.7,15,4.8,7.4C192.4,119.7,195.8,117.7,195.1,113.7z M165.7,139.1c2.2,2.4,8.5-3.7,12.6-4.7
	C172.3,132.2,169.2,136.4,165.7,139.1z M470.6,365.9c11.5,6.4,19.8-35.3,16.4-42.4c-3.6,6.1-6.2,12-12.5,13.5
	C470.3,344.6,468,356.8,470.6,365.9z M242.3,549.6c-7.1-15.8-14.7-1.9-23.3-0.9C224.6,551.2,235.1,548.7,242.3,549.6z M172,517.5
	c9.2,0.3-1.9-11.7-6.8-9.5C176.9,513.5,161.1,513.6,172,517.5z M575.9,261.2c5.3,7.7,5.1-8.9-0.1-7.3
	C575.7,256.3,575.4,258.9,575.9,261.2z M302.5,246c-10.3-2.2,11.4-1.7-6.5-5.9c7.8-10.2-1.8-21.4,6.8-23.6
	c-7.1-0.7-0.2-12.8,8.7-24.7V0h-29.7v588.4h29.7V260.7C306.2,255.3,301.3,249.9,302.5,246L302.5,246z"/>
<path class="st0" d="M291.5,44.1c-2.3-8.1-9.2-3.6-12.5-8c16.3-0.9,9.6-13.7,20.2-14.3c-14.5-7.6,12.4-12.6,15.6-16.5
	c-17.3,3.6-57.7,1.6-21.6-1.3c-11-2.2-26.3,0.2-30.7,0.2c-19.8,9.8-41.4,5-60.1,14.3c-3.5,0.5-11,4.1-2.5,2.8
	c-4.7,6.3-28.9,8.9-13.8,9.8c1.9,0.5,6.5-2.2,6.4,0.6c-19.5,7.6,26-5.8,22.7,12.8c7.5,0.7,8.1,5.6,5.9,11.9c-0.1,6-0.1,6-4.5,4.2
	c1.3,8.2,1.4,20.1,15.1,19.5c6.7-0.6,9.6-20.1,20.1-19.3c10-1,15.5-11.1,26.9-10.1c11.5-4.4,5-5.9-3.7-4.2
	C279.1,38.9,278.9,40.6,291.5,44.1L291.5,44.1z M581,283.1v2.1V283.1z M292.2,66.4c4.1,2.4,13-0.2,17.3-5.5
	C305,56.5,285.6,60.3,292.2,66.4z M129.5,83l11.9-3.9C134.5,74.5,132.8,74.9,129.5,83z M144.7,41.4c25.4-2.1,16.8-13.3,42.7-19.3
	C193.6,14.8,153.4,35.9,144.7,41.4z M186.1,69.6c15.6-7.1-16-5.3-8.5-15.2c-3.6,1.1-13.6,0.1-14.3-4.2c-3.7,2.7-12.4,6.3-10.1-0.6
	c-6.9-1.5-8.5,5.8-13,9.3c6.1-19.1-17.3,1.8-3.4,0.3c-8.4,6.2,32.6-8.7,30,7.4c-19.8,9.7,19.4,18.9,6.5,10.2
	c3.8-0.3,11.5,1.3,7.2-4.4C172.3,68.2,181.2,63.6,186.1,69.6z M20.7,196.5c0.7,6.2,6.7,11.8,10,17.6C28.7,208.7,22,186.1,20.7,196.5
	z M5.9,285v-1.5V285z M157.4,43.1c-8,0.4-17.5,1.3-24.2,5.7C141.6,47.5,149.8,47.4,157.4,43.1z M120.2,58.7l10.1-5.7
	C126.5,52.2,122.1,56.1,120.2,58.7z M205.1,14.4c-2.2-0.4-4.3,1.1-6.4,1.7L205.1,14.4z M382,22.5c12.2-9.4-3.6-9-11.9-10
	c2.2,6.8,7.3,2.6,11.6,4C380.2,19.7,377.9,21,382,22.5z M327.7,95c-7.3,2.7-9.6,4.9-9,12C324.8,107.4,327,104.8,327.7,95z
	 M331.9,111c20.3,0.4,14.4-9.9,3.3-20c8.6-1.9-6-9.8-5.4-3C333.6,106.6,340.3,87.5,331.9,111z"/>
<path class="st0" d="M296.7,0.3C132.9,0.3,0.1,133.1,0.1,296.8s132.8,296.5,296.5,296.5s296.5-132.8,296.5-296.5
	S460.4,0.3,296.7,0.3z M295.8,566.6c-149.1,0-270-120.9-270-270s120.9-270,270-270s270,120.9,270,270S444.9,566.6,295.8,566.6
	L295.8,566.6z"/>
<path class="st0" d="M426.3,58.9c31.7,8.2,7.6-11-9.7-9.3C420,52.6,423.2,55.7,426.3,58.9z M369.8,67.6c-12.6,5.9-11.3,3.6-9.9,17
	c24.9-9.9,8.4,28.7,31-4.3c-5.8-5-5.9-8.6-1.1-11.7c2.5-0.6,4.4-2.9,6.2-5.1c-4.1-3.3-8.3-6.4-12.6-9.2
	C380.1,56.8,374.4,59.8,369.8,67.6z M413.4,79.1c-4-4-8.2-7.9-12.4-11.5C389.1,79.4,403.9,77.3,413.4,79.1z M502.7,201.9
	c1.5,6.2,2.9,12.4,4.1,18.7C513.4,214.2,514.8,207.4,502.7,201.9z M509.1,198.3c16.4,4.9,16.1-3.3,34.2,10.4c-3.1,5.3,4.7,11,7,1.7
	c1.9,8.2,14.3,57.4,21.8,41.5c9-76.8-61-171.9-117.3-196.4c-2.5-0.5-2.6-0.2-3.7,6.7c-11.2-3.3-6.5,8.9-17.4,2.8
	c3.3,2.2,3.1,3.3,1.7,3.4c29.3,33.1,52.1,76.6,65.5,126.2C503.7,195.4,506.5,196.2,509.1,198.3z M502.7,197.9
	c-0.2,0.4-0.5,0.8-0.7,1.2c0.1,0.3,0.1,0.5,0.2,0.8C502.4,199.3,502.5,198.6,502.7,197.9z M101.2,246.3l-0.9,6.6l2.5,2.7
	C102.6,252.1,101.5,249.2,101.2,246.3L101.2,246.3z M102.6,237l-0.7,4.2c0.1-0.4,0.3-0.7,0.5-1.1C102.7,238.9,102.7,237.9,102.6,237
	z M115.6,190.2c-0.5-1.9-0.5-3.6-0.2-5c-1.2,3.6-2.3,7.2-3.4,10.9c0.4,2.6,0.8,5.3,2.1,7.3C118.7,198.4,116.1,194.2,115.6,190.2
	L115.6,190.2z M85.4,219.3c-22.7,27.5-35.4-29.5,8.9-31.7c8.3-28.7,19.9-55.2,34-78.7c-52.6-6-2.2-30,10.3-37.3
	c7.5,0.1,10.6-12.2,0.6-8c-11.7,15.2-5.5-0.4-13.3,4.9c-5.3-4.2-5.2-14.9-11.9-2.4c11.3-1.4-6,15.1-4.7,5.5
	c-1.2,1.3-1.9,2.7-2.8,2.8C66.7,94.3,39,149.3,23.9,188.5c7.5,12.2,17.6,24,20.8,36.8c10.1,7,21.3,7.1,31.1,10.2
	c2.7,1.3,5.1,2.6,7.3,3.7c1-7.2,2.3-14.2,3.7-21.2C86.3,218.3,85.9,218.8,85.4,219.3z M132.8,164.9c-1.6-6.2-0.5-8,5.2-8.4
	c3.8-1.8,4.2-7.4,9.2-7.1c6-2.2,5.9-10.3,12.7-11.1c12.5-2.9,8.3-9.3,12-15.3c-14.8,3.6-16.2,4.6-2.1-3.6
	c11.9,2.3,43.7-15.5,16-11.7c13.5-7.2-1,0.8-5.4-21.7c-6.7,10.8-9.4,8.6-12.3,4.4c-21.9,25.3-39.7,57-51.9,92.9
	C119.4,176.2,131.6,173.7,132.8,164.9L132.8,164.9z M179.3,503.7c13.6-15.4-5.2-4-3.7,7.4c5.2,5.4,10.6,10.5,16.1,15.2
	C195.9,521.1,193,512.6,179.3,503.7L179.3,503.7z M343.6,525.7c-10.4-0.3-22.3-5-30.8,3.3c-5.8,3.4-9.9-0.4-5.1,5.1
	c-3.2,1-7,0.3-9.3,4.3c-13.1,2.4-27.7,1.2-39.9,7c10,6.7,48.1,7,12.1,8.4c-10.6,0.3-21,1.1-31.3,1.6c17.9,7.3,36.9,11.2,56.6,11.2
	c40.4,0,77.9-16.5,109.2-44.7C384.8,523.2,363.9,518.6,343.6,525.7L343.6,525.7z M164,538.1c-6.5-1.3-13-1.1-19-7
	c8.5,2.5,17,6.2,6.7-0.3c22.3,5.8,7.2,0,9.9-1.4c-3.1-3.3-6-6.7-9-10.2c-12.7-1.9-25.5-5.7-37.7-7.1C48.6,459.5,6,378.3,5.9,287.1
	c-0.2,123.1,77,228.3,185.7,269.5c-4.5-3.4-8.9-7-13.2-10.8C171.4,544,165.4,542,164,538.1z M581.1,287.1
	c-0.1,85.3-37.4,161.8-96.4,214.4c-7.2-3.4-15.1,5-21.2,6.8c-6.3,0.9-12.6,1.5-18.2,5c-11.3,14.4-23.7,27.2-37.1,38.1
	C510,507.1,581.3,405.4,581.1,287.1L581.1,287.1z"/>
<path class="st0" d="M163.9,529.1c-1.2,0-1.9,0.1-2.3,0.3c5.4,5.8,11,11.3,16.8,16.4c8.5,2.3,18.6,4.4,23.8,9.7
	c12.6,0.9,24.9,0.6,37.1-0.1c-16.9-6.9-32.9-16.7-47.6-29.2C187.7,531.1,177.4,532.9,163.9,529.1L163.9,529.1z M406.2,63
	c-4.5-6.2-7.1-3.1-10.1,0.6l4.9,4C402.4,66.3,404.1,64.7,406.2,63z M419.1,81.5c-1.2-1.2-3.3-1.9-5.7-2.4l2.2,2.2L419.1,81.5z
	 M115.4,185.2l0.6-1.9C115.7,183.9,115.5,184.5,115.4,185.2z M101.2,246.3l0.7-5C101.2,243.1,101.1,244.7,101.2,246.3z M428.4,63.8
	c0.7,3.4,5,5,7,4.8l-9.1-9.7l-4.2-1.1C424.9,59.8,426.9,60.9,428.4,63.8L428.4,63.8z M491.2,250.9c1.9,0.5,2.6,2.5,0.9,7.5
	c1.3,12.5,2,25.2,2,38.1c0,94.1-35.3,177-88.9,225.3c6.5-0.4,12.9-1.4,19.3-3.6c2.6-8.1,11.3,1.3,17.1-2c1.1-1.1,2.4-2.2,3.8-3
	c42.4-54.1,68.9-131.1,68.9-216.5c0-26.3-2.5-51.9-7.3-76.2c-4.6,4.4-11.6,8.7-18.4,12.2L491.2,250.9L491.2,250.9z M180.4,518.5
	c-3.1-2.3-4.5-4.8-4.8-7.4C128.3,461.7,97.8,384,97.8,296.6c0-14.9,0.9-29.5,2.6-43.7c-6-6.5-10.5-10-17.3-13.7
	c-2.7,18.7-4.1,37.9-4.1,57.7c0,88.5,28.5,168,73.6,222.3C162.1,520.6,171.5,521,180.4,518.5L180.4,518.5z M191.6,556.6
	c31.1,23.4,66.9,36.7,105,36.7c40.8,0,79-15.3,111.6-41.9c-35.1,15.3-73.9,23.8-114.6,23.8C257.6,575.2,223.2,568.6,191.6,556.6
	L191.6,556.6z M138.2,109.2c12.2-4.6,7.2-13.8,10.4-22.8c0.4-5.7,8-3.4,11.8-3.8c3.5,1.4,5.6,5,7.5,7.8
	c34.5-39.9,79.2-63.9,128-63.9c31.5,0,61.2,10,87.7,27.8c2.4-1.7,3.6-3.2,2.5-5.8c2.4,0.4,5.3-3.2,5.8,2.3c2-1.3,5.8-1.9,0.7-3.2
	c7.3-2.5,16.9-7.7,20.1,2.8c1.3-0.4,2.6-0.7,4-0.9C382.3,18.5,341,0.3,296.5,0.3c-67.8,0-128.4,42.3-168.3,108.6
	c0.5,0.1,1,0.1,1.5,0.2C128.8,124.3,140,122.8,138.2,109.2L138.2,109.2z M487.1,187.6c-20-21.9,1.3,32.5,14.9,11.5
	c-0.4-1.4-0.7-2.9-1.1-4.3C495.7,193.8,490.6,193.6,487.1,187.6z M502.6,201.9c0,0,0.1,0,0.1,0.1l-0.5-2
	C500.5,206.7,499.4,211.3,502.6,201.9z M143.5,419c-1,4.5,2.2,16.8-4.1,13.1c1.6,2.2,3.9,3.9,4.2,6c1.4,12.3,9.8,19.5,13.3,12.3
	c13.7-17.6-2.6-13.2,4.6-20.8c3.6-2,3.5-5.6,2.5-9.1c-8.5-2-16.7-4.1-24.7-6.5C139.5,417.2,140.9,415.9,143.5,419L143.5,419z
	 M178.7,395c13.8,4.8,12.7,3.1,17.7-8.3c16.7-37.6,34.2-18.9,34.8-60.8c21.7-20.3,2.9-35.6-17.7-33.7c1-5.2-8.3-8.7-10.7-4.7
	c-8,6.1-13.9-1.5-4.8-9c-4.3-13-11.7-14.3-22.1-16.9c-7.3-3.7-11-14.6-19.9-11.8c-6.9,3.8-19.8-11.7-18.9,4
	c-3.2-13.1-11.9-5.7-18.1,4.8c2.7,23.1-11.2,14.3-9.4,36.2c8.9,57.3,41.7,18.8,31.3,104.4c11.8,3.9,24.4,7.4,37.5,10.4
	C184.1,407.7,186.5,402.4,178.7,395L178.7,395z"/>
<path class="st0" d="M415.6,81.3c-17.4-0.4-4.4,10.2-13.3,7.6c-5.7-3.9-3.6,9.6-4.7,10c-23.5-2-28.4-1.4-39.7,0
	c1,5.1-1.5,10.6-7.7,9.7c-1.1,5.3-10.5,6.2-17.1,10.6c28.9,24.8-22.2,9.5-11.8,21.2c-10.7,15,14.2,26.3,21.4,10.1
	c0.5-6.6,6-7.2,8.7-10.9c0.1-6,3.4-4.7,6.5-4.4c4.6,0.3,8-3.6,13.4-1c13.9,6.9,11.7,29,15.8,20.2c0.9-2,3.5-6.4,2.9-9
	c-1.3-6.7-20.3-12.9-10-20.1c1.2,4.9,5.8,0.8,6.7-2.2c1.5,5-7.3,7.3,1.6,11.8c9.1,2.2,7.9,19,18.6,18.3c-5.9-13.5,8.7-6.5,12.7-9.7
	c-6.2-7.8,11-28.5,14.5-10c3.2-7.2,18.9-15.3,9.6-1.5c50.1,29-60.5-3.5-18.2,28c15-1.9,20.7,0.9,17.2,16.2
	c11.9,3.2,23.3,6.7,34.1,10.6C463.3,145,442,108.7,415.6,81.3L415.6,81.3z M466.6,227.6c2.4,3.3,0,15.3,6,12.3
	c5.4-2.1,10.7-4.4,15.8-7.1c-1.7-9.6-3.8-19-6.2-28.2c-11.7-5.2-24.4-9.8-37.9-14C449.8,203.8,460.2,214.9,466.6,227.6L466.6,227.6z
	 M311.4,260.7c3.7,4,7.6,7.9,9.2,11.2c4.1,8.1,34.7,10.2,41.3,0.6c9.8,0.5,13.1,10.8,23.5,8.2c-0.7,6.5-13.1-7-11.7,7.8
	c-9.2,13.2,31.7,24.2,9.1,21c0.7,32.4-2.5,54.1,14.7,89.3c6.8,17.4,43.6-13,41.1-27.6c16.8-13.4-1.6-20.2,15-30.5
	c27.7-17.2-13.2-40.9,19.8-62.9c8.3-6.5,14.2-9.9,18.7-19.2v-0.1l-0.9-7.5c-4.6-1.1-16.5,6.4-20.7,0.7c-8.4-9-16.6-29.6-24.6-36.7
	c6.7-2-10.1-19.2-9-25.7c2.3,4,2.9,3.2,3.4,0.2c-11.9-3.5-24.4-6.6-37.4-9.2c-1.4,1.2-2.6,3.1-3.5,6c-9.8-3.8-15.8-7.1-19.6-10
	c-16.6-2.5-33.8-4.3-51.6-5.2c-3.9,4.4-10.9,12.5-16.9,20.7v68.9H311.4z M363.1,269.1c-0.1,1.8-0.5,2.6-0.8,2.8
	C362.7,271,363,270.1,363.1,269.1z M106,188.2c-4.3-0.6-8.3-0.8-11.8-0.6c-0.9,3-1.7,5.9-2.5,8.9c5.7-2.5,11.5-4.9,17.6-7.3
	C108.6,188.6,107.5,188.2,106,188.2z M86,232.6c5,3.8,15.8-2.5,16.6,4.4c1.8-10.8,4-21.3,6.7-31.5c-7.9,3.6-15.4,7.4-22.3,11.4
	c-0.1,0.3-0.1,0.7-0.2,1C97.5,208.6,93.8,229.1,86,232.6z"/>
<path class="st0" d="M441.5,181.7c-0.6,2.9-0.9,5.9-1.2,7.8l4,1.2C443.1,187.8,442.1,184.8,441.5,181.7z M477,186.8
	c1.9,5.8,3.7,11.8,5.3,17.8c52.1,23,84.6,55.5,84.6,91.6c0,69.6-120.9,126.1-270,126.1c-42.5,0-82.6-4.6-118.4-12.7
	c-2.3,0.8-5.1,1.1-8,0.7c0.7,7.2-2.1,7-7.9,5.9c0.5,1.4,1.1,2.8,1.5,4.3c39.9,9.3,84.9,14.6,132.5,14.6
	c163.8,0,296.5-62,296.5-138.4C593.1,251.9,547.6,212.1,477,186.8L477,186.8z M139.3,411.3l1.6-12c-69-22.9-114.1-60.5-114.1-103
	c0-30.1,22.6-57.7,60.2-79.4c1.4-6.9,3-13.7,4.8-20.4C35.2,221.8,0,257.3,0,296.7c0,49.5,55.6,92.9,139.3,117.4
	C139.2,413.4,139.2,412.5,139.3,411.3z"/>
<path class="st0" d="M112,196.1l-2.6,9.5c48.6-21.9,114.7-35.3,187.5-35.3c10.6,0,21.1,0.3,31.5,0.8c1.1-1.3,2-2.2,2.6-2.8
	c61.1-8.8,31.7-5.1,49,8c7.9,1.2,15.5,2.5,23.1,4c5.8-5.1,15.2,2.7,23.2,4.5c4.8,1,15.8-10.3,15.2-3c0.6-2,1.1-3.9,1.5-5.6
	c-43.2-11.5-93.1-18-146.4-18c-71,0-136.1,11.6-187.2,31.1C111,190.7,111.5,193.3,112,196.1L112,196.1z"/>
<path class="st0" d="M441.4,181.8l0.1-0.1L441.4,181.8z"/>
</svg>
