<svg xmlns="http://www.w3.org/2000/svg" viewBox="0 0 66 58" xmlns:v="https://vecta.io/nano"><path d="M46.1 21.1l-12.5-7.2a.91.91 0 0 0-1 0L20 21.1c-.3.2-.5.5-.5.9v14.5c0 .4.2.7.5.9l12.5 7.2a.91.91 0 0 0 1 0L46 37.4c.3-.2.5-.5.5-.9V22c.1-.4-.1-.7-.4-.9z" fill="#8080f2"/><path d="M.4 27.7l15-26.1C15.9.7 16.9 0 18 0h30c1.1 0 2.1.7 2.6 1.6l15 26c.5.9.5 2.1 0 3.1l-15 25.9c-.5.9-1.5 1.4-2.6 1.4H18c-1.1 0-2.1-.5-2.6-1.4L.4 30.7a3.19 3.19 0 0 1 0-3zm12.4 12.5c0 .4.2.7.6.9l19.1 11c.3.2.7.2 1.1 0l19.1-11c.3-.2.6-.5.6-.9v-22c0-.4-.2-.7-.6-.9l-19.1-11c-.3-.2-.7-.2-1.1 0l-19.1 11c-.3.2-.6.5-.6.9v22h0z" fill="#4b32c3"/></svg>