<svg xmlns="http://www.w3.org/2000/svg" viewBox="0 0 288 333" xmlns:v="https://vecta.io/nano"><path d="M50.9 52.6H243V270H50.9z" fill="#fff"/><path d="M144 0v333l117.5-38.6L287.7 0z" opacity=".15"/><path d="M0 .1h0 0l25.7 294.3L144.3 333l117.5-38.6L288 0 0 .1zm231.2 98.6H93.3l3.1 37.1h131.7l-10.2 111.3-73.9 20.4-74.4-20.4-4.5-56.9h35.8l2.6 28.6 40.5 10.8 39.9-10.8 4.5-46.7H63.2L53.6 63h180.8l-3.2 35.7z" fill="#f96f24"/><path d="M188.4 172.1H144v57.5l39.9-10.8zM144 0v63h90.4l-3.2 35.7H144v37.1h84.1l-10.2 111.3-73.9 20.4v65.4l.3.1 117.5-38.6L288 0z" fill="#e44e2f"/></svg>