<svg xmlns="http://www.w3.org/2000/svg" viewBox="0 0 98.6 98.6" xmlns:v="https://vecta.io/nano"><path d="M0,0h98.6v98.6H0V0z" fill="#f0db4f"/><path d="M90.5 75.1c-.7-4.5-3.7-8.3-12.3-11.8-3-1.4-6.4-2.4-7.4-4.7-.4-1.3-.4-2.1-.2-2.9.6-2.6 3.8-3.4 6.2-2.7 1.6.5 3.1 1.8 4 3.7l7.2-4.6c-1.1-1.7-1.7-2.5-2.4-3.2-2.6-2.9-6-4.3-11.6-4.2l-2.9.4c-2.8.7-5.4 2.2-7 4.1-4.7 5.3-3.3 14.6 2.3 18.4 5.6 4.2 13.8 5.2 14.9 9.1 1 4.8-3.5 6.4-8.1 5.8-3.3-.7-5.2-2.4-7.2-5.5l-7.5 4.3c.9 2 1.8 2.9 3.4 4.6 7.1 7.2 25 6.9 28.2-4.1.3-.3 1.1-2.9.4-6.7h0zM53.6 45.3h-9.2v23.8c0 5.1.3 9.7-.6 11.1-1.3 2.8-4.8 2.5-6.4 1.9-1.6-.8-2.4-1.9-3.4-3.5-.3-.5-.5-.8-.5-.8L26 82.4c1.2 2.6 3.1 4.8 5.4 6.2 3.5 2.1 8.2 2.8 13.2 1.6 3.2-.9 6-2.9 7.4-5.8 2.1-3.9 1.6-8.6 1.6-13.7 0 0 0-25.4 0-25.4z" fill="#323330"/></svg>