<svg xmlns="http://www.w3.org/2000/svg" viewBox="0 0 120 125.1" xmlns:v="https://vecta.io/nano"><path d="M117.5 25.9l-2.7 85.8-91.6 5.7L6.7 25.9V9.4l80-5.7z" fill="#fff"/><path d="M20.7 21.9c3.9 3.2 5.4 2.9 12.7 2.4l68.9-4.1c1.5 0 .2-1.5-.2-1.7l-11.4-8.3C88.5 8.5 85.6 6.5 80 7l-66.9 5c-2.4.2-2.9 1.5-1.9 2.4l9.5 7.5zM24.8 38v72.5c0 3.9 1.9 5.4 6.3 5.1l75.7-4.4c4.4-.2 4.9-2.9 4.9-6.1v-72c0-3.2-1.2-4.9-3.9-4.6l-79.1 4.6c-2.9.3-3.9 1.7-3.9 4.9zm74.8 3.9c.5 2.2 0 4.4-2.2 4.6l-3.6.7v53.5c-3.2 1.7-6.1 2.7-8.5 2.7-3.9 0-4.9-1.2-7.8-4.9l-24-37.4v36.2L61 99s0 4.4-6.1 4.4l-16.8 1c-.5-1 0-3.4 1.7-3.9l4.4-1.2V51.4l-6.1-.5c-.5-2.2.7-5.4 4.1-5.6l18-1.2 25 37.9V48.4l-6.3-.7c-.5-2.7 1.5-4.6 3.9-4.9l16.8-.9zM7.5 5.4L76.9.3C85.4-.4 87.6 0 93 3.9l22.1 15.6c3.7 2.7 4.9 3.4 4.9 6.3v85.4c0 5.4-1.9 8.5-8.8 9l-80.6 4.9c-5.1.2-7.5-.5-10.2-3.9L4.1 100C1.2 96.1 0 93.2 0 89.8V13.9c0-4.4 1.9-8 7.5-8.5z"/></svg>