<svg xmlns="http://www.w3.org/2000/svg" viewBox="0 0 522 522" xmlns:v="https://vecta.io/nano"><path d="M0 0h522v522H0z" opacity=".6" fill="#191919"/><path d="M261 522h0C116.9 522 0 405.1 0 261h0C0 116.9 116.9 0 261 0h0c144.1 0 261 116.9 261 261h0c0 144.1-116.9 261-261 261z" fill="#494949"/><g fill="#191919"><circle cx="269.2" cy="268.9" r="45.7"/><path d="M513 270.1c0-33.8-39-63.8-99.2-82.5 13.7-60.7 6.8-109.1-22.9-126s-75.6 1.4-122 43.5C222.4 63 176.5 44.6 146.8 61.6c-29.7 16.9-36.5 65.3-22.9 126-60.1 18.6-99.1 48.6-99.1 82.5s39 63.8 99.2 82.5c-13.7 60.7-6.8 109.1 22.9 126s75.6-1.4 122-43.5c46.5 42.1 92.3 60.4 122 43.5s36.5-65.3 22.9-126c60.1-18.7 99.2-48.7 99.2-82.5zm-104.4 62.5c-5.7-20-13.5-41.1-23.2-62.6 9.8-21.7 17.6-42.9 23.3-63.1 48 15 78.6 37.6 78.6 62.8.1 25.4-30.5 47.9-78.7 62.9zM51.3 269.8c0-25.1 30.2-47.6 77.7-62.6 5.7 20.1 13.5 41.3 23.3 62.9-9.7 21.4-17.4 42.4-23.1 62.3-47.6-15-77.9-37.5-77.9-62.6zm98.1 68.2c4-13.7 9-28 15.1-42.8 4.5 8.7 9.2 17.4 14.3 26.1s10.3 17.1 15.7 25.2c-16-2.1-31.1-5-45.1-8.5zM195 192.9c-5.5 8.4-10.9 17-16.1 25.9-5 8.6-9.8 17.2-14.2 25.8-6.1-14.9-11.2-29.3-15.2-43.1 14.1-3.5 29.3-6.4 45.5-8.6zm2.6 117.7c-8-13.7-15.3-27.4-21.7-40.9 6.4-13.5 13.7-27.2 21.7-40.9s16.4-26.7 25-39c15.1-1.2 30.7-1.9 46.7-1.9s31.7.7 46.7 1.9c8.6 12.2 17 25.3 25 39s15.3 27.4 21.7 40.9c-6.4 13.5-13.7 27.2-21.7 40.9s-16.4 26.7-25 39c-15.1 1.2-30.7 1.9-46.7 1.9s-31.7-.7-46.7-1.9c-8.6-12.2-17-25.3-25-39zm145.5 36.1c5.4-8.2 10.7-16.6 15.8-25.3 5.3-9 10.2-18.1 14.8-27.1 6.3 15.1 11.4 29.8 15.5 43.8-14.2 3.5-29.7 6.4-46.1 8.6zm15.8-127.9c-5.2-9-10.7-17.6-16.2-26 16.5 2.2 32.1 5.1 46.5 8.7-4.1 14.1-9.3 28.9-15.6 44.1-4.6-8.9-9.5-17.9-14.7-26.8zm35.3-36.7c-20.6-5.2-43.1-9.1-67-11.6-14-19.1-28.6-36.2-43.4-51.2 37.2-33.6 72.4-48.5 94.6-35.8 22.2 12.6 26.7 50 15.8 98.6zm-125.3-14.6c-10.2 0-20.3.3-30.2.8 10.1-12.9 20.4-24.7 30.7-35.1 10.3 10.5 20.6 22.3 30.7 35.2-10.2-.6-20.7-.9-31.2-.9zm-58.3 3c-23.6 2.4-45.8 6.3-66.2 11.4-10.8-48.4-6.3-85.8 15.9-98.4 22.1-12.6 57.1 2.1 94.1 35.4-14.9 15-29.7 32.3-43.8 51.6zm-66.3 187.7c20.4 5.1 42.7 9 66.3 11.4 14.1 19.1 28.7 36.3 43.5 51.3-36.9 33.1-71.7 47.7-93.8 35.1-22.1-12.5-26.7-49.6-16-97.8zm124.6 14.4c10.4 0 20.6-.3 30.7-.8-10 12.7-20.1 24.2-30.2 34.5-10.1-10.3-20.2-21.8-30.2-34.5 9.7.5 19.6.8 29.7.8zm58.3-2.9c24-2.5 46.6-6.4 67.2-11.6 10.7 48.3 6.1 85.4-16 98s-57.2-2.2-94.3-35.6c14.6-14.8 29.1-31.9 43.1-50.8z"/></g><g fill="#61dafb"><circle cx="253.4" cy="260" r="45.7"/><path d="M497.2 261.2c0-33.8-39-63.8-99.2-82.5 13.7-60.7 6.8-109.1-22.9-126s-75.6 1.4-122 43.5C206.6 54.1 160.7 35.7 131 52.7c-29.7 16.9-36.5 65.3-22.9 126C48 197.3 9 227.3 9 261.2s39 63.8 99.2 82.5c-13.7 60.7-6.8 109.1 22.9 126s75.6-1.4 122-43.5c46.5 42.1 92.3 60.4 122 43.5s36.5-65.3 22.9-126c60.1-18.7 99.2-48.7 99.2-82.5zm-104.4 62.5c-5.7-20-13.5-41.1-23.2-62.6 9.8-21.7 17.6-42.9 23.3-63.1 48 15 78.6 37.6 78.6 62.8.1 25.4-30.5 47.9-78.7 62.9zM35.5 260.9c0-25.1 30.2-47.6 77.7-62.6 5.7 20.1 13.5 41.3 23.3 62.9-9.7 21.4-17.4 42.4-23.1 62.3-47.6-15-77.9-37.5-77.9-62.6zm98.1 68.2c4-13.7 9-28 15.1-42.8 4.5 8.7 9.2 17.4 14.3 26.1s10.3 17.1 15.7 25.2c-16-2.1-31.1-5-45.1-8.5zM179.2 184c-5.5 8.4-10.9 17-16.1 25.9-5 8.6-9.8 17.2-14.2 25.8-6.1-14.9-11.2-29.3-15.2-43.1 14.1-3.5 29.3-6.4 45.5-8.6zm2.6 117.7c-8-13.7-15.3-27.4-21.7-40.9 6.4-13.5 13.7-27.2 21.7-40.9s16.4-26.7 25-39c15.1-1.2 30.7-1.9 46.7-1.9s31.7.7 46.7 1.9c8.6 12.2 17 25.3 25 39s15.3 27.4 21.7 40.9c-6.4 13.5-13.7 27.2-21.7 40.9s-16.4 26.7-25 39c-15.1 1.2-30.7 1.9-46.7 1.9s-31.7-.7-46.7-1.9c-8.6-12.2-17-25.3-25-39zm145.5 36.1c5.4-8.2 10.7-16.6 15.8-25.3 5.3-9 10.2-18.1 14.8-27.1 6.3 15.1 11.4 29.8 15.5 43.8-14.2 3.5-29.7 6.4-46.1 8.6zm15.8-127.9c-5.2-9-10.7-17.6-16.2-26 16.5 2.2 32.1 5.1 46.5 8.7-4.1 14.1-9.3 28.9-15.6 44.1-4.6-8.9-9.5-17.9-14.7-26.8zm35.3-36.7c-20.6-5.2-43.1-9.1-67-11.6-14-19.1-28.6-36.2-43.4-51.2 37.2-33.6 72.4-48.5 94.6-35.8 22.2 12.6 26.7 50 15.8 98.6zm-125.3-14.6c-10.2 0-20.3.3-30.2.8 10.1-12.9 20.4-24.7 30.7-35.1 10.3 10.5 20.6 22.3 30.7 35.2-10.2-.6-20.7-.9-31.2-.9zm-58.3 3c-23.6 2.4-45.8 6.3-66.2 11.4-10.8-48.4-6.3-85.8 15.9-98.4 22.1-12.6 57.1 2.1 94.1 35.4-14.9 15-29.7 32.3-43.8 51.6zm-66.3 187.7c20.4 5.1 42.7 9 66.3 11.4 14.1 19.1 28.7 36.3 43.5 51.3-36.9 33.1-71.7 47.7-93.8 35.1-22.1-12.5-26.7-49.6-16-97.8zm124.6 14.4c10.4 0 20.6-.3 30.7-.8-10 12.7-20.1 24.2-30.2 34.5-10.1-10.3-20.2-21.8-30.2-34.5 9.7.5 19.6.8 29.7.8zm58.3-2.9c24-2.5 46.6-6.4 67.2-11.6 10.7 48.3 6.1 85.4-16 98s-57.2-2.2-94.3-35.6c14.6-14.8 29.1-31.9 43.1-50.8z"/></g></svg>