<svg xmlns="http://www.w3.org/2000/svg" viewBox="0 0 304.9 302.7" xmlns:v="https://vecta.io/nano"><g fill="#415870"><path d="M73.7 145.1c2.7-12.3 7.6-24.1 14.3-34.8 6.4-10.3 14.4-19.5 23.5-27.5a121.14 121.14 0 0 0-18.7 20.5C96.6 98 101 93 105.9 88.6c4.9-4.5 10.3-8.5 16-11.9-2 2-4.2 3.9-6.4 5.7-2.3 2-4.3 4-4.6 5.2-12.3 11.2-22.5 24.6-29.8 39.5-7.4 15-11.5 31.4-12.3 48.1-1.4-5.5-1.3-11.4.5-16.8 1.4-4.8 3.3-8.8 4.4-13.3m82.1-82.7l-9.2 3.2c3-1.4 6-2.4 9.2-3.2m38.7 217.4c3.4-.4 6.8-.9 10-1.4-3.2.8-6.6 1.3-10 1.4M79 188.1l1.5 5.6c2.2 14.5 7.1 28.5 14.6 41.2-4.4-7.1-8.1-14.6-11.1-22.4-3.1-7.8-4.8-16.1-5-24.4m2.3-15.6c.1-14.2 3.8-28.1 10.8-40.4-6.7 12.5-10.4 26.3-10.8 40.4m183.9 46.6c-.3-.1-.4-.4-.4-.8.1-.3.2-.7.1-1 2.6-3.9 5-8 7-12.2-.1 1.2-.3 2.3-.6 3.5-1 1.7-2 3.4-3.3 4.9-1.1 1.7-2.1 3.5-2.8 5.6m-74.4 61l-.4.1-3.5.2-.4-.1 4.3-.2m71-56.1c-.5-.3-1-.4-1.6-.4l4.7-6.3c-.1.3-.1.6-.1.9-.5 1.8-2.4 3.8-3 5.8m-48.9 30.6c-1.5.5-2.6 1.9-3.3 2.4-4.3.3-8.5.3-13.4.3-.7.4-2.3.5-3.8 1.1-.9-.4-1.9-.8-2.9-1.1 11.1.1 22.1-1.8 32.4-5.8-3 1.3-5.9 2.3-9 3.1"/><path d="M163.5 79.1c8.2-2.6 17.5-3.4 26.6-3.1s18 1.7 26.5 2.6c-9.2-3.7-21.1-5.7-31-6.2s-17.9-.1-19.9-2.1 5.1-4 15-4.4c5.3-.1 10.6.1 15.8.8 5.3.6 10.4 1.6 14.4 2.4l-4.2-1.8c2.1.9 4.2 1.8 6.2 1.7-2.6-1.2-5.4-2.2-8.1-3.1-2.9-1-5.7-1.9-6.9-2.8 1.4-.3 2.8-.5 4.2-.8-5.6-2.5-14.3-4-23.1-4.2s-17.8.5-24.3.6c16.3-1.9 32.7-1.3 48.8 1.7 17.3 3.3 33.8 10 48.5 19.6 15.3 10.1 28.1 23.6 37.4 39.4 9.2 15.8 14.5 33.6 15.3 51.8 2.8 39.3-12.1 77.7-40.6 104.9-4.2 3.5-8.8 6.6-13.6 9.1-6 3.2-12.2 5.9-18.6 7.9-20.2 8.1-42.6 10.9-64.6 8.9-23.4-3-45.4-13.6-63-29.3S72.9 236 65.4 212.2c-1.5-4.8-1.7-10.8-.7-12.6.5-.9 1.2-.8 2.3 1s2.3 5.2 4.4 10.7c7.2 18.2 18 34.7 31.7 48.6-1.3-.3-3.5-2.2-5.6-4.6-1.9-2.2-4-4.3-6.1-6.4 3.8 5.7 8.2 11.1 13.1 15.9 4.8 4.8 10.2 9.1 15.9 12.8-8.1-5.2-15.5-11.4-22.1-18.3 8.6 9.1 18.6 16.8 29.5 23 11.4 6.4 23.8 10.9 36.7 13.2 4.7.9 8.9 2.7 13.9 3.9 5.7 1.5 11.7 1.4 17.4-.3-17.3 0-34.4-3.5-50.3-10.4-15.8-6.8-30.2-16.7-42.3-28.9h.2c-10.4-10.3-18.8-22.6-24.7-36 2 4.1 4.4 8.1 6.3 11.7-9.6-19.2-14.9-39.9-14.7-60.8a140.64 140.64 0 0 0 10.8 43.2c6 14 14.4 26.7 25 37.6 10.6 11 23.2 19.7 37.2 25.8 13.6 5.9 28.3 9 43.2 8.9-8.1-1.4-17.4-2.4-26.3-4.5s-17.3-5.5-22.8-10.1c23.7 12.2 50.8 16.1 76.9 11l-5.7 1.7c8.6-.7 17.1-2.8 25-6.3a143.97 143.97 0 0 0 22.7-12.6c1.3-.8 2.5-1.7 3.8-2.6l-3.8 2.6c-12.8 8.4-27 14.2-42 17.1 6.5-2 13.4-4.1 21.5-7.3-4.7 1-11.1 2.9-17.6 4.1-8.4 2.2-17.1 3.3-25.8 3.4 12.8-.5 25.4-3.7 36.8-9.4-16.8 5.5-35.3 7.7-52.7 5 9.6 1 19.3.6 28.8-1 16.3-1.9 31.9-7.6 45.7-16.5l-1.5 1.1c1.1-.7 2.1-1.4 3.1-2.2 5.4-3.7 10.4-7.9 15.1-12.5 4-4.2 7.3-9 10-14.2l1.6-2.4c-.6 1.8-.8 2.8 1.4 0 4.8-6.3 8.5-13.3 11-20.8 2.8-7.7 4.8-15.9 7-24.4 1.1-4.5 1.4-10.8.8-17.4.3-1.2.2-2.5-.4-3.6l-.6-4.3c-.3-3.5-1-7-1.9-10.4.7 3.4 1.4 6.8 1.9 10.4l.4 3.9c-.7-1.1-1.1-2.4-1.2-3.7 1 12.2-.2 24.5-3.3 36.4-3.2 12.1-8.4 23.5-15.2 33.9.5-1.5 1.3-3.5 1.5-4.3-1 2.3-2 4.5-3.2 6.7-4.6 6.7-9.9 12.9-15.8 18.5 1.5-1.7 2.8-3.5 4-5.4-8.2 8.1-17.5 14.9-27.7 20.2-10.3 5.3-21.3 9-32.7 11-21.4 2.5-43.1-1.5-62.2-11.4 10.2 6.4 21.6 10.7 33.5 12.4-16.5-1.7-32.4-7.2-46.4-16.2-13.9-9-25.4-21.3-33.4-35.8 4.4 4.2 10.2 9.9 14.2 11.1.6-.8-5.2-8.9-1.1-4.7 7.6 7.3 14.2 13 20.3 17.1 6.1 4 11.6 6.1 16.6 5.2 1-.4-2.7-4.3-5.2-8.1s-4.2-7.2-1.3-5.8c7.3 4.2 15.1 7.6 23.1 9.9 2.9 1.1 5.8 2 8.8 2.6.4.2 1.1 0 2-.2 10.9 1.8 21.4 1.1 27.2.6 2.2-.1 4.3-.4 6.4-.8a8.15 8.15 0 0 1 3.1.6c1.2-.8 2.5-1.4 3.7-2 5.6-1.4 11-3.4 16.1-6 3.1-1 6-2.3 8.9-3.7-.3-.3-1-.4-.7-1.1 6-4 11.4-8.7 16.1-14.1 2.1-1.8 4.4-3.5 6.7-5 .9-4.2 4.1-9.8 7-16.2s5.5-13.7 6.3-19.9h-.1c1.2-6.3 1.6-12.6 1.4-19 .3-1.1.6-2.1 1-3.1-.7-1.6-.9-3.2-1.3-4-.2-5.2-.5-9.6-1-14.1-.5-.7-2-1.8-2.6-3.4-1-3.2-2.2-6.2-3.7-9.2-1.5-3.5-3.3-6.9-5.2-10.2-6.6-11.3-15.4-21.1-25.9-28.8-.1-.6 0-1.1.3-1.6-2.1-.5-4.3-2.4-6.1-2.9.4 0 .7-.1.8-.4-2.1-.7-4.1-1.6-5.9-2.8-1.7-1.2-3.5-2.3-5.3-3.2-1.2-.2-2.4-.4-3.6-.5a12.2 12.2 0 0 1-1.7-.7c-5.3-4.1-11.8-4.6-18.7-5.2-7-1.2-14.1-1.6-21.2-1.2-5.6.4-8.1-.6-12.3-.6"/><path d="M272.7 203.5c2.6-5.7 4.5-11.6 5.9-17.6-1 6.6-1.7 12.8-5.9 17.6m-135.2 37.7c-1.3-2.3-2.8-4.6-4.4-6.7 10.7 10.2 23.9 17.3 38.3 20.6v.1c-5.9-1-12.7-3.8-18.7-6.8s-11.1-6.2-15.2-7.2m127.3-22.9c0-.3.1-.6.1-.9h0c0 .3 0 .6-.1.9m-164 13l-.9-1.5c2.6 3.7 5.4 7.3 8.4 10.8-2.8-2.9-5.3-6-7.5-9.3m-14.7-46.1c-1.2-9.2-1.1-18.5.3-27.6 2.2-11.4 6.8-22.1 13.4-31.6-10.4 17.9-15.1 38.5-13.7 59.2m33.3 34c-1.2-2.8-2.3-5.7-3.1-8.7 1.2 2.7 2.6 5.4 4.2 8-.7-.2-.9.4-1.1.7m8.2 38.9l-2.2-1.6 6.3 3.3-4.1-1.7m-17.4-69.7c.2 2.2.6 4.4 1 6.5l-1.8-3.6c.4-.9.6-1.9.8-2.9"/><path d="M111.3 154.6c.7-2.8 1.7-5.6 2.9-8.2-1.1 3.3-2 6.7-2.7 10.1-.2-.8-.4-1.5-.2-1.9"/></g><g fill="#189ab6"><path d="M137.8 16.4c9 3.9 17.2 9.3 24.4 16 6.9 6.4 12.7 13.8 17.4 22-3.6-6.2-7.9-12-12.9-17.2 3.5 3.7 6.6 7.8 9.3 12.2s4.9 9.1 6.7 13.9c-1.2-1.8-2.3-3.7-3.4-5.7-1.2-2-2.4-3.9-3.3-4.3-6.7-11.1-15.4-20.7-25.7-28.5s-22.2-13.4-34.8-16.5c4.4-.3 8.9.7 12.8 2.8 3.5 1.7 6.3 3.8 9.5 5.3m51 74.8l-1.1-7.5c.6 2.4 1 4.9 1.1 7.5M17.4 88.5l-.4 7.9c-.2-2.7 0-5.4.4-7.9"/><path d="M104.4 14l-4.4.3c-11.4-.5-22.8 1.2-33.5 5 6-2.3 12.3-4 18.7-5.2C91.4 13 98 13 104.4 14m11.5 4.1c10.8 2.2 20.8 7.1 29.2 14.2-8.6-6.9-18.6-11.8-29.2-14.2M53.2 151.2c.1-.2.4-.2.6-.1s.5.2.7.2c2.6 2.6 5.3 5 8.2 7.1a27.73 27.73 0 0 1-2.6-1c-1.2-1-2.3-2.1-3.3-3.2s-2.2-2.1-3.6-3M17.8 85.5l-.1-.3.4-2.7.1-.3-.4 3.3"/><path d="M49.9 148c.3-.3.5-.7.5-1.1 1.3 1.6 2.7 3 4.1 4.5-.2-.1-.5-.2-.7-.2-1.2-.8-2.4-2.5-3.9-3.2m-16-41.9c-.3-1-.7-2-1.3-2.9.4-3.3 1-6.6 1.8-10.3-.2-.6 0-1.9-.3-3.1.5-.6.9-1.3 1.3-2-1.7 8.4-1.9 17-.4 25.5-.6-2.3-1-4.7-1.1-7.2"/><path d="M174.9 94.5c.7 6.9.1 14-1.6 20.7-1.6 6.9-3.9 13.5-5.9 19.8 4.1-6.5 7.5-15.2 9.3-22.6s2.8-13.6 4.6-14.9 2.3 4.5 1.1 12.1c-.7 4.1-1.6 8-2.9 11.9-1.3 4-2.8 7.6-4 10.6 1-1.4 1-1.4 2-2.9-1 1.3-1.8 2.8-2.2 4.5 1.3-1.8 2.5-3.8 3.6-5.7.9-1.7 1.9-3.3 3.1-4.8 0 1.1 0 2.2-.1 3.3 2.7-3.9 5.1-10.3 6.7-17s2.2-13.6 3.1-18.6c-1 12.7-3.9 25.1-8.5 36.9-5 12.7-12.6 24.2-22.1 34-10 10.1-22.1 17.9-35.6 22.6-13.4 4.7-27.7 6-41.7 4-30.3-3.7-57.4-20.8-73.8-46.5-2.1-3.7-3.7-7.7-4.9-11.8-1.6-5-2.6-10.2-3.3-15.4-3.1-16.8-2.1-34.1 2.8-50.5 5.9-17.4 16.9-32.6 31.6-43.6C51.3 9.2 69.2 2.2 88 .1c3.9-.5 8.5.3 9.7 1.3.6.5.4 1.1-1.1 1.6-2.9.8-5.8 1.4-8.8 1.8-14.9 2.8-29.1 8.6-41.7 17 .4-1 2.2-2.3 4.3-3.6 2-1.1 3.9-2.4 5.7-3.7-4.9 2.1-9.6 4.6-14.1 7.6-4.4 3-8.4 6.4-12.1 10.2 5.2-5.4 11-10.1 17.3-14.2-8.2 5.2-15.6 11.6-21.9 19a87.66 87.66 0 0 0-15.4 26c-1.4 3.4-3.4 6.4-5 10-2 4.1-2.8 8.7-2.4 13.3C5 73.2 10.2 60.7 17.8 49.7S35 29.2 46.1 21.8l-.1.1A90.86 90.86 0 0 1 77.1 8.4c-3.4 1-6.8 2.2-9.9 3C83 6.8 99.6 6.1 115.7 9.2c-11.5-1.2-23.1-.6-34.4 1.9A96.83 96.83 0 0 0 49 24.6C39.1 31 30.5 39.4 23.8 49.1c-6.5 9.5-11 20.3-13.2 31.6 2.3-6 4.4-12.9 7.4-19.3S24.7 49 29 45.5c-12.8 16.2-19.8 36.3-19.7 57l-.5-4.6c-.8 6.7-.4 13.4 1.1 20s3.5 13 6.2 19.1c.5 1.1.9 2.2 1.4 3.2l-1.4-3.2a91.05 91.05 0 0 1-6.8-34.5c.6 5.3 1.2 10.8 2.4 17.4 0-3.7-.6-8.9-.5-14-.4-6.7 0-13.5 1.2-20.1-1.5 9.8-1 19.9 1.7 29.5-1.7-13.6-.7-28 4-40.9-2.1 7.1-3.3 14.5-3.5 22-1 12.7 1 25.4 5.8 37.2l-.6-1.3L21 135c2 4.7 4.4 9.1 7.3 13.3 2.6 3.6 5.8 6.9 9.3 9.7l1.6 1.6c-1.2-.8-2-1-.2 1.1 4.1 4.6 8.9 8.5 14.2 11.5 5.5 3.3 11.4 6 17.5 8.9 4.2 1.7 8.6 2.8 13 3.2.9.4 1.9.5 2.8.2 1.1.1 2.2.1 3.4.2 2.7.3 5.5.3 8.2.1-2.7 0-5.4 0-8.2-.1l-3.1-.3c1-.3 2-.5 3-.4-9.5-1.1-18.7-3.7-27.2-7.9-8.7-4.2-16.7-9.8-23.6-16.6 1 .6 2.4 1.5 3.1 1.8a78.01 78.01 0 0 1-4.6-3.4c-4.4-4.5-8.3-9.5-11.7-14.8 1 1.4 2.2 2.7 3.5 3.8-5-7.4-8.8-15.5-11.3-24.1s-3.7-17.6-3.5-26.5c1.3-16.7 7.5-32.6 17.9-45.7C26 57.4 21.1 65.5 18 74.3c3.7-12.4 10.3-23.6 19.2-32.9s20-16.2 32.2-20.1c-3.9 2.8-9 6.3-10.5 9.2.5.5 7.5-2.6 3.8-.2-6.7 4.7-12.1 8.9-16 13s-6.4 8-6.4 11.8c.1.8 3.7-1.4 7-2.8s6.1-2.1 4.6-.1c-4.3 4.9-8 10.4-11 16.2a37.79 37.79 0 0 0-3.3 6.3c-.2.5-.2 1-.1 1.5-2.4 6.7-3.9 13.6-4.5 20.6a41.93 41.93 0 0 0-.3 5c-.2.8-.5 1.6-.9 2.3.4 1.1.7 2.1 1 3.1.2 4.4 1 8.8 2.2 13.1.3 2.5.8 5 1.5 7.4.2-.2.5-.7.9-.4 2.2 5.1 5 10 8.4 14.4 1.1 1.9 2 3.8 2.8 5.8 3.1 1.3 6.8 4.6 11.3 7.7a61.14 61.14 0 0 0 14.2 7.7v-.1c4.6 1.8 9.4 3.1 14.2 3.9.8.4 1.5.7 2.2 1.2 1.3-.3 2.6-.2 3.2-.4 4 .6 7.4 1.1 10.9 1.3a8.47 8.47 0 0 1 3-1.5c2.5-.3 5.1-.8 7.5-1.5 2.9-.6 5.7-1.5 8.5-2.4a72.83 72.83 0 0 0 25.7-15.5c.4 0 .8.2 1.2.4.7-1.5 2.5-2.9 3.1-4.2-.1.3 0 .5.2.6.8-1.5 1.8-2.9 3-4.1 1.2-1.1 2.2-2.3 3.2-3.6.4-.9.7-1.8.9-2.7.3-.4.5-.8.8-1.2 3.9-3.4 5.2-8.3 6.8-13.5 2-5.2 3.3-10.5 4.1-16 .5-4.2 1.7-5.9 2.3-9.1"/><path d="M63.9 159.2c3.9 2.8 8.1 5.2 12.6 7.1-4.9-1.6-9.5-3.1-12.6-7.1M55.3 50.8c2-.6 3.9-1.4 5.7-2.3-9.4 6.5-16.7 15.5-21.4 26h-.1c2-4.8 4.7-9.2 8-13.2 3.2-4.1 6.5-7.6 7.8-10.5m-1.5 100.3c.2.1.5.1.7.2h0c-.3 0-.5-.1-.7-.2M68.2 24.3l1.3-.5c-3.2 1.4-6.4 3-9.4 4.8 2.5-1.7 5.2-3.1 8.1-4.3m37.3-4.4c7.2.5 14.2 1.9 21 4.3 8.3 3.3 15.8 8.4 22.1 14.9-12.1-10.5-27.1-17.2-43.1-19.2"/><path d="M74.6 40.2c2.3-.5 4.7-.9 7.1-1.1-2.3.5-4.5 1.2-6.7 2 .3-.4-.2-.7-.4-.9m-30.8.5l1.6-1.4-3.4 4.3c.3-.6 1.2-1.9 1.8-2.9m55.7-2.9l-5.1-.2c1-.2 2-.5 3-.9.6.5 1.3.8 2.1 1.1m25.5 5.8c2 1 4 2.1 5.9 3.4l-7.3-3.6c.7.1 1.2.1 1.4.2"/></g></svg>