<svg xmlns="http://www.w3.org/2000/svg" viewBox="0 0 513.9 351.1" xmlns:v="https://vecta.io/nano"><path d="M181 133.8h17.1v37.6H181z" fill="#34a853"/><path d="M260.5 81.2h18.3v90.2h-18.3z" fill="#4285f4"/><path d="M233.4 117.3h17.5v54.2h-17.5z" fill="#df382b"/><path d="M207.2 151.9h17.2v19.4h-17.2z" fill="#fabb05"/><path d="M478.1 192.9l7.1 7.1-56 56.2-20.1 20.1-22.7-22.7h0 0l-49.1 49.1c2.8 5.8 6.5 11.5 11.3 16.9l37.8-37.8 22.7 22.7 41.3-41.3v-.1l48.9-49 6.9 6.9 7.7-35.7-35.8 7.6z" fill="#009540"/><path d="M382 340.2c-12.6-7.1-22.6-16.8-29.9-29.4-7.4-12.5-11.1-26.7-11.1-42.5 0-15.7 3.7-29.7 11.1-42.2s17.3-22.3 29.9-29.4 26.4-10.6 41.4-10.6c15.2 0 29 3.5 41.6 10.6 12.5 7.1 22.4 16.8 29.7 29.4 7.3 12.5 10.9 26.6 10.9 42.2 0 15.8-3.6 30-10.9 42.5s-17.2 22.3-29.8 29.4-26.4 10.6-41.4 10.6c-15.1 0-28.9-3.6-41.5-10.6zm67-24.8c7.4-4.4 13.1-10.6 17.3-18.8 4.1-8.1 6.2-17.6 6.2-28.3s-2.1-20.1-6.2-28.2-9.9-14.2-17.3-18.5-15.9-6.4-25.6-6.4-18.2 2.1-25.7 6.4c-7.4 4.3-13.2 10.5-17.4 18.5-4.1 8.1-6.2 17.5-6.2 28.2s2.1 20.2 6.2 28.3 9.9 14.4 17.4 18.8c7.4 4.4 16 6.6 25.7 6.6s18.2-2.2 25.6-6.6z" fill="#4285f4"/><path d="M98.811 200.736l36.48-27.691 22.128 29.152-36.48 27.691z" fill="#cdd0d5"/><path d="M237.9 21.6c14.8 0 29.4 3.4 42.7 9.8 13.8 6.7 25.8 16.5 35 28.7 32.5 42.9 24.1 104-18.7 136.5-16.9 12.9-37.6 19.9-58.8 19.8-14.8 0-29.4-3.4-42.7-9.8-48.4-23.5-68.5-81.9-45-130.3 16.2-33.4 50.2-54.7 87.5-54.7m0-21.6c-65.7.1-119 53.4-118.9 119.1s53.4 119 119.1 118.9S357 184.6 357 118.9c0-26-8.5-51.2-24.3-71.9-22.4-29.7-57.6-47.1-94.8-47h0z" fill="#9fc1f9"/><path d="M4.7 296.1h0C-3 286-1 271.6 9 264l80.2-60.9c10.1-7.6 24.4-5.7 32.1 4.4h0c7.6 10.1 5.7 24.4-4.4 32.1l-80.2 60.9c-10.1 7.6-24.4 5.6-32-4.4z" fill="#959ca5"/><path d="M265.5 212.8v40h54.8v25.4h-54.8v42.3h61.7v26h-94.4V186.7h94.4v26h-61.7zM124.2 345.3c-9-3.8-16-9.4-21.2-16.6s-7.9-15.7-8-25.6h34.4c.5 6.6 2.8 11.8 7 15.7 4.2 3.8 10 5.8 17.3 5.8 7.5 0 13.4-1.8 17.7-5.4s6.4-8.3 6.4-14.2c0-4.8-1.5-8.7-4.4-11.7-2.9-3.1-6.5-5.5-10.9-7.3s-10.4-3.7-18-5.9c-10.4-3.1-18.9-6.1-25.4-9.1s-12.1-7.5-16.8-13.6-7-14.2-7-24.3c0-9.5 2.4-17.8 7.1-24.9s11.4-12.5 20-16.2c8.6-3.8 18.4-5.6 29.4-5.6 16.5 0 30 4 40.3 12.1s16 19.3 17.1 33.7h-35.3c-.3-5.5-2.6-10.1-7-13.7s-10.1-5.4-17.3-5.4c-6.3 0-11.3 1.6-15 4.8-3.8 3.2-5.6 7.9-5.6 14 0 4.3 1.4 7.9 4.2 10.7s6.3 5.1 10.6 6.9c4.2 1.8 10.1 3.8 17.8 6.1 10.4 3.1 18.9 6.1 25.5 9.2s12.2 7.7 17 13.8c4.7 6.1 7.1 14.2 7.1 24.2 0 8.6-2.2 16.6-6.7 23.9-4.4 7.4-10.9 13.2-19.5 17.6s-18.7 6.6-30.5 6.6c-11.3.2-21.3-1.7-30.3-5.6z" fill="#4285f4"/></svg>