<svg xmlns="http://www.w3.org/2000/svg" viewBox="0 0 22.3 22.3" xmlns:v="https://vecta.io/nano"><path d="M2.2 1.6h18.1v17.3H2.2z" fill="#fff"/><linearGradient id="A" gradientUnits="userSpaceOnUse" x1="11.126" y1="22.291" x2="11.126" y2=".006"><stop offset="0" stop-color="#0052cc"/><stop offset="1" stop-color="#2684ff"/></linearGradient><path d="M19.6 0h-17A2.65 2.65 0 0 0 0 2.6v17c0 1.5 1.2 2.6 2.6 2.6h17c1.5 0 2.6-1.2 2.6-2.6v-17c.1-1.4-1.1-2.6-2.6-2.6zm-10 16c0 .5-.4.9-.9.9H5c-.5 0-.9-.4-.9-.9V5c0-.5.4-.9.9-.9h3.7c.5 0 .9.4.9.9v11zm8.5-5c0 .5-.4.9-.9.9h-3.8c-.5 0-.9-.4-.9-.9V5c0-.5.4-.9.9-.9h3.7c.5 0 .9.4.9.9v6z" fill="url(#A)"/></svg>