<svg xmlns="http://www.w3.org/2000/svg" viewBox="0 0 256 256" xmlns:v="https://vecta.io/nano"><path d="M0,0h256v256H0V0z" fill="#03a9f5"/><path d="M197.2 98.6l4.8-15.5h-30.6l-5.2 21.5c10.1-2.3 20.5-4.3 31-6zm-48.4 11l-7.5-26.4h-24.9l-13.6 45.5c14.5-7.2 29.4-13.4 46-19.1zm-38.3 72.9h1l16.1-54.9 16 54.9h.7 27.1l21.9-71.3c-9.9 1.2-19.9 2.9-30 4.9l-5.8 24-6.1-21.4c-8.9 2.1-17.9 4.5-26.9 7.3-7.9 2.4-15.7 5.1-23.3 7.9l-1.8 6-1.1-4.9c-8.6 3.2-17.1 6.7-25.3 10.3 8.2-5.1 16.3-9.7 24.5-13.9L86.3 83.2H54.5l29.3 99.3h26.7 0z" fill="#fff"/></svg>